<svg xmlns="http://www.w3.org/2000/svg" xmlns:xlink="http://www.w3.org/1999/xlink" width="64" zoomAndPan="magnify" viewBox="0 0 48 48" height="64" preserveAspectRatio="xMidYMid meet" version="1.0"><defs><g/><clipPath id="id1"><path d="M 6.460938 2.535156 L 41.726562 2.535156 L 41.726562 26.777344 L 6.460938 26.777344 Z M 6.460938 2.535156 " clip-rule="nonzero"/></clipPath></defs><g fill="#ffffff" fill-opacity="1"><g transform="translate(6.881262, 36.386742)"><g><path d="M 0.34375 -0.265625 L 1.15625 -0.265625 L 1.15625 -6.9375 L 0.34375 -6.9375 L 0.34375 -7.203125 L 5.609375 -7.203125 L 5.609375 -5.75 L 5.34375 -5.75 L 5.34375 -6.9375 L 1.421875 -6.9375 L 1.421875 -3.8125 L 4.625 -3.8125 L 4.625 -3.546875 L 1.421875 -3.546875 L 1.421875 -0.265625 L 2.234375 -0.265625 L 2.234375 0 L 0.34375 0 Z M 0.34375 -0.265625 "/></g></g><g transform="translate(13.041239, 36.386742)"><g><path d="M 1.46875 -5.34375 L 1.515625 -4.421875 L 1.515625 -4.234375 C 1.660156 -4.617188 1.878906 -4.914062 2.171875 -5.125 C 2.460938 -5.34375 2.828125 -5.453125 3.265625 -5.453125 C 3.335938 -5.453125 3.40625 -5.441406 3.46875 -5.421875 C 3.53125 -5.410156 3.585938 -5.398438 3.640625 -5.390625 L 3.609375 -5.15625 L 3.265625 -5.1875 C 2.785156 -5.1875 2.394531 -5.03125 2.09375 -4.71875 C 1.789062 -4.414062 1.597656 -4.007812 1.515625 -3.5 L 1.515625 -0.265625 L 2.3125 -0.265625 L 2.3125 0 L 0.4375 0 L 0.4375 -0.265625 L 1.25 -0.265625 L 1.25 -5.078125 L 0.4375 -5.078125 L 0.4375 -5.34375 Z M 1.46875 -5.34375 "/></g></g><g transform="translate(17.011112, 36.386742)"><g><path d="M 4.375 0 C 4.332031 -0.226562 4.300781 -0.398438 4.28125 -0.515625 C 4.269531 -0.640625 4.265625 -0.769531 4.265625 -0.90625 L 4.265625 -0.984375 C 4.054688 -0.660156 3.769531 -0.394531 3.40625 -0.1875 C 3.039062 0.0078125 2.609375 0.109375 2.109375 0.109375 C 1.617188 0.109375 1.226562 -0.0234375 0.9375 -0.296875 C 0.65625 -0.566406 0.515625 -0.921875 0.515625 -1.359375 C 0.515625 -1.835938 0.734375 -2.226562 1.171875 -2.53125 C 1.609375 -2.832031 2.195312 -2.984375 2.9375 -2.984375 L 4.265625 -2.984375 L 4.265625 -3.765625 C 4.265625 -4.210938 4.117188 -4.5625 3.828125 -4.8125 C 3.546875 -5.0625 3.148438 -5.1875 2.640625 -5.1875 C 2.296875 -5.1875 1.972656 -5.132812 1.671875 -5.03125 C 1.378906 -4.9375 1.128906 -4.804688 0.921875 -4.640625 L 0.921875 -3.78125 L 0.65625 -3.78125 L 0.65625 -4.8125 C 0.914062 -5 1.21875 -5.148438 1.5625 -5.265625 C 1.90625 -5.390625 2.265625 -5.453125 2.640625 -5.453125 C 3.210938 -5.453125 3.671875 -5.304688 4.015625 -5.015625 C 4.359375 -4.722656 4.53125 -4.300781 4.53125 -3.75 L 4.53125 -1.078125 C 4.53125 -0.941406 4.535156 -0.804688 4.546875 -0.671875 C 4.554688 -0.535156 4.578125 -0.398438 4.609375 -0.265625 L 5.25 -0.265625 L 5.25 0 Z M 2.109375 -0.15625 C 2.617188 -0.15625 3.054688 -0.269531 3.421875 -0.5 C 3.796875 -0.726562 4.078125 -1.039062 4.265625 -1.4375 L 4.265625 -2.71875 L 2.953125 -2.71875 C 2.296875 -2.71875 1.769531 -2.585938 1.375 -2.328125 C 0.976562 -2.078125 0.78125 -1.742188 0.78125 -1.328125 C 0.78125 -0.992188 0.898438 -0.710938 1.140625 -0.484375 C 1.390625 -0.265625 1.710938 -0.15625 2.109375 -0.15625 Z M 2.109375 -0.15625 "/></g></g><g transform="translate(22.607496, 36.386742)"><g><path d="M 0.4375 -0.265625 L 1.25 -0.265625 L 1.25 -5.078125 L 0.4375 -5.078125 L 0.4375 -5.34375 L 1.46875 -5.34375 L 1.515625 -4.25 C 1.671875 -4.625 1.898438 -4.914062 2.203125 -5.125 C 2.515625 -5.34375 2.898438 -5.453125 3.359375 -5.453125 C 3.941406 -5.453125 4.378906 -5.265625 4.671875 -4.890625 C 4.960938 -4.523438 5.109375 -3.945312 5.109375 -3.15625 L 5.109375 -0.265625 L 5.921875 -0.265625 L 5.921875 0 L 4.046875 0 L 4.046875 -0.265625 L 4.84375 -0.265625 L 4.84375 -3.15625 C 4.84375 -3.894531 4.707031 -4.414062 4.4375 -4.71875 C 4.175781 -5.03125 3.816406 -5.1875 3.359375 -5.1875 C 2.785156 -5.1875 2.351562 -5.007812 2.0625 -4.65625 C 1.769531 -4.3125 1.585938 -3.875 1.515625 -3.34375 L 1.515625 -0.265625 L 2.3125 -0.265625 L 2.3125 0 L 0.4375 0 Z M 0.4375 -0.265625 "/></g></g><g transform="translate(29.133314, 36.386742)"><g><path d="M 1.140625 0 L 0.71875 0 L 0.71875 -0.640625 L 1.140625 -0.640625 Z M 1.140625 0 "/></g></g><g transform="translate(31.328362, 36.386742)"><g><path d="M 0.4375 -0.265625 L 1.25 -0.265625 L 1.25 -5.078125 L 0.4375 -5.078125 L 0.4375 -5.34375 L 1.484375 -5.34375 L 1.515625 -4.25 C 1.671875 -4.625 1.898438 -4.914062 2.203125 -5.125 C 2.515625 -5.34375 2.882812 -5.453125 3.3125 -5.453125 C 3.78125 -5.453125 4.15625 -5.332031 4.4375 -5.09375 C 4.726562 -4.851562 4.925781 -4.488281 5.03125 -4 C 5.175781 -4.457031 5.410156 -4.8125 5.734375 -5.0625 C 6.054688 -5.320312 6.457031 -5.453125 6.9375 -5.453125 C 7.53125 -5.453125 7.976562 -5.257812 8.28125 -4.875 C 8.582031 -4.488281 8.734375 -3.882812 8.734375 -3.0625 L 8.734375 -0.265625 L 9.546875 -0.265625 L 9.546875 0 L 7.65625 0 L 7.65625 -0.265625 L 8.46875 -0.265625 L 8.46875 -3.0625 C 8.46875 -3.84375 8.328125 -4.390625 8.046875 -4.703125 C 7.773438 -5.023438 7.410156 -5.1875 6.953125 -5.1875 C 6.378906 -5.1875 5.945312 -5.015625 5.65625 -4.671875 C 5.363281 -4.328125 5.179688 -3.890625 5.109375 -3.359375 C 5.109375 -3.285156 5.109375 -3.222656 5.109375 -3.171875 C 5.117188 -3.128906 5.125 -3.085938 5.125 -3.046875 L 5.125 -0.265625 L 5.9375 -0.265625 L 5.9375 0 L 4.046875 0 L 4.046875 -0.265625 L 4.859375 -0.265625 L 4.859375 -3.0625 C 4.859375 -3.84375 4.71875 -4.390625 4.4375 -4.703125 C 4.164062 -5.023438 3.796875 -5.1875 3.328125 -5.1875 C 2.773438 -5.1875 2.351562 -5.019531 2.0625 -4.6875 C 1.78125 -4.363281 1.597656 -3.945312 1.515625 -3.4375 L 1.515625 -0.265625 L 2.328125 -0.265625 L 2.328125 0 L 0.4375 0 Z M 0.4375 -0.265625 "/></g></g></g><g fill="#22e3dd" fill-opacity="1"><g transform="translate(6.466097, 43.488235)"><g><path d="M 0.984375 -3.1875 L 0.640625 -3.171875 L 1.171875 -0.96875 L 1.28125 -0.4375 L 1.296875 -0.4375 L 1.421875 -0.96875 L 2.171875 -3.40625 L 2.4375 -3.40625 L 3.171875 -0.96875 L 3.296875 -0.4375 L 3.3125 -0.4375 L 3.421875 -0.96875 L 3.953125 -3.171875 L 3.609375 -3.1875 L 3.609375 -3.40625 L 4.5 -3.40625 L 4.5 -3.1875 L 4.234375 -3.171875 L 3.453125 0 L 3.1875 0 L 2.390625 -2.609375 L 2.3125 -2.96875 L 2.296875 -2.96875 L 2.203125 -2.609375 L 1.40625 0 L 1.140625 0 L 0.359375 -3.171875 L 0.09375 -3.1875 L 0.09375 -3.40625 L 0.984375 -3.40625 Z M 0.984375 -3.1875 "/></g></g></g><g fill="#22e3dd" fill-opacity="1"><g transform="translate(11.124743, 43.488235)"><g><path d="M 1.34375 0.046875 C 1.019531 0.046875 0.753906 -0.0664062 0.546875 -0.296875 C 0.335938 -0.535156 0.234375 -0.832031 0.234375 -1.1875 L 0.234375 -1.3125 C 0.234375 -1.675781 0.335938 -1.976562 0.546875 -2.21875 C 0.753906 -2.457031 1.003906 -2.578125 1.296875 -2.578125 C 1.609375 -2.578125 1.851562 -2.476562 2.03125 -2.28125 C 2.207031 -2.082031 2.296875 -1.820312 2.296875 -1.5 L 2.296875 -1.25 L 0.515625 -1.25 L 0.515625 -1.1875 C 0.515625 -0.90625 0.585938 -0.664062 0.734375 -0.46875 C 0.890625 -0.28125 1.09375 -0.1875 1.34375 -0.1875 C 1.507812 -0.1875 1.65625 -0.207031 1.78125 -0.25 C 1.90625 -0.300781 2.007812 -0.375 2.09375 -0.46875 L 2.21875 -0.28125 C 2.125 -0.175781 2.003906 -0.09375 1.859375 -0.03125 C 1.710938 0.0195312 1.539062 0.046875 1.34375 0.046875 Z M 1.296875 -2.328125 C 1.097656 -2.328125 0.925781 -2.25 0.78125 -2.09375 C 0.644531 -1.9375 0.5625 -1.738281 0.53125 -1.5 L 0.546875 -1.484375 L 2.015625 -1.484375 L 2.015625 -1.5625 C 2.015625 -1.78125 1.953125 -1.960938 1.828125 -2.109375 C 1.703125 -2.253906 1.523438 -2.328125 1.296875 -2.328125 Z M 1.296875 -2.328125 "/></g></g></g><g fill="#22e3dd" fill-opacity="1"><g transform="translate(13.834916, 43.488235)"><g><path d="M 2.390625 -1.1875 C 2.390625 -0.8125 2.304688 -0.507812 2.140625 -0.28125 C 1.972656 -0.0625 1.738281 0.046875 1.4375 0.046875 C 1.25 0.046875 1.085938 0.0078125 0.953125 -0.0625 C 0.816406 -0.132812 0.707031 -0.238281 0.625 -0.375 L 0.59375 0 L 0.359375 0 L 0.359375 -3.40625 L -0.015625 -3.4375 L -0.015625 -3.640625 L 0.640625 -3.640625 L 0.640625 -2.125 C 0.722656 -2.269531 0.828125 -2.378906 0.953125 -2.453125 C 1.085938 -2.535156 1.242188 -2.578125 1.421875 -2.578125 C 1.734375 -2.578125 1.972656 -2.453125 2.140625 -2.203125 C 2.304688 -1.960938 2.390625 -1.640625 2.390625 -1.234375 Z M 2.109375 -1.234375 C 2.109375 -1.554688 2.046875 -1.816406 1.921875 -2.015625 C 1.796875 -2.222656 1.613281 -2.328125 1.375 -2.328125 C 1.175781 -2.328125 1.015625 -2.28125 0.890625 -2.1875 C 0.773438 -2.09375 0.691406 -1.96875 0.640625 -1.8125 L 0.640625 -0.671875 C 0.703125 -0.523438 0.796875 -0.40625 0.921875 -0.3125 C 1.046875 -0.226562 1.195312 -0.1875 1.375 -0.1875 C 1.625 -0.1875 1.804688 -0.273438 1.921875 -0.453125 C 2.046875 -0.640625 2.109375 -0.882812 2.109375 -1.1875 Z M 2.109375 -1.234375 "/></g></g></g><g fill="#22e3dd" fill-opacity="1"><g transform="translate(16.617427, 43.488235)"><g/></g></g><g fill="#22e3dd" fill-opacity="1"><g transform="translate(17.918166, 43.488235)"><g><path d="M 1.53125 -3.40625 C 1.945312 -3.40625 2.289062 -3.265625 2.5625 -2.984375 C 2.832031 -2.703125 2.96875 -2.347656 2.96875 -1.921875 L 2.96875 -1.484375 C 2.96875 -1.046875 2.832031 -0.6875 2.5625 -0.40625 C 2.289062 -0.132812 1.945312 0 1.53125 0 L 0.171875 0 L 0.171875 -0.203125 L 0.546875 -0.234375 L 0.546875 -3.15625 L 0.171875 -3.1875 L 0.171875 -3.40625 Z M 0.828125 -3.15625 L 0.828125 -0.234375 L 1.53125 -0.234375 C 1.863281 -0.234375 2.140625 -0.347656 2.359375 -0.578125 C 2.578125 -0.816406 2.6875 -1.117188 2.6875 -1.484375 L 2.6875 -1.921875 C 2.6875 -2.273438 2.578125 -2.566406 2.359375 -2.796875 C 2.140625 -3.035156 1.863281 -3.15625 1.53125 -3.15625 Z M 0.828125 -3.15625 "/></g></g></g><g fill="#22e3dd" fill-opacity="1"><g transform="translate(21.326055, 43.488235)"><g><path d="M 1.34375 0.046875 C 1.019531 0.046875 0.753906 -0.0664062 0.546875 -0.296875 C 0.335938 -0.535156 0.234375 -0.832031 0.234375 -1.1875 L 0.234375 -1.3125 C 0.234375 -1.675781 0.335938 -1.976562 0.546875 -2.21875 C 0.753906 -2.457031 1.003906 -2.578125 1.296875 -2.578125 C 1.609375 -2.578125 1.851562 -2.476562 2.03125 -2.28125 C 2.207031 -2.082031 2.296875 -1.820312 2.296875 -1.5 L 2.296875 -1.25 L 0.515625 -1.25 L 0.515625 -1.1875 C 0.515625 -0.90625 0.585938 -0.664062 0.734375 -0.46875 C 0.890625 -0.28125 1.09375 -0.1875 1.34375 -0.1875 C 1.507812 -0.1875 1.65625 -0.207031 1.78125 -0.25 C 1.90625 -0.300781 2.007812 -0.375 2.09375 -0.46875 L 2.21875 -0.28125 C 2.125 -0.175781 2.003906 -0.09375 1.859375 -0.03125 C 1.710938 0.0195312 1.539062 0.046875 1.34375 0.046875 Z M 1.296875 -2.328125 C 1.097656 -2.328125 0.925781 -2.25 0.78125 -2.09375 C 0.644531 -1.9375 0.5625 -1.738281 0.53125 -1.5 L 0.546875 -1.484375 L 2.015625 -1.484375 L 2.015625 -1.5625 C 2.015625 -1.78125 1.953125 -1.960938 1.828125 -2.109375 C 1.703125 -2.253906 1.523438 -2.328125 1.296875 -2.328125 Z M 1.296875 -2.328125 "/></g></g></g><g fill="#22e3dd" fill-opacity="1"><g transform="translate(24.036227, 43.488235)"><g><path d="M 0.953125 -2.3125 L 0.640625 -2.296875 L 1.28125 -0.625 L 1.359375 -0.34375 L 1.375 -0.34375 L 1.453125 -0.625 L 2.078125 -2.296875 L 1.765625 -2.3125 L 1.765625 -2.53125 L 2.609375 -2.53125 L 2.609375 -2.3125 L 2.375 -2.296875 L 1.46875 0 L 1.25 0 L 0.359375 -2.296875 L 0.109375 -2.3125 L 0.109375 -2.53125 L 0.953125 -2.53125 Z M 0.953125 -2.3125 "/></g></g></g><g fill="#22e3dd" fill-opacity="1"><g transform="translate(26.870075, 43.488235)"><g><path d="M 1.34375 0.046875 C 1.019531 0.046875 0.753906 -0.0664062 0.546875 -0.296875 C 0.335938 -0.535156 0.234375 -0.832031 0.234375 -1.1875 L 0.234375 -1.3125 C 0.234375 -1.675781 0.335938 -1.976562 0.546875 -2.21875 C 0.753906 -2.457031 1.003906 -2.578125 1.296875 -2.578125 C 1.609375 -2.578125 1.851562 -2.476562 2.03125 -2.28125 C 2.207031 -2.082031 2.296875 -1.820312 2.296875 -1.5 L 2.296875 -1.25 L 0.515625 -1.25 L 0.515625 -1.1875 C 0.515625 -0.90625 0.585938 -0.664062 0.734375 -0.46875 C 0.890625 -0.28125 1.09375 -0.1875 1.34375 -0.1875 C 1.507812 -0.1875 1.65625 -0.207031 1.78125 -0.25 C 1.90625 -0.300781 2.007812 -0.375 2.09375 -0.46875 L 2.21875 -0.28125 C 2.125 -0.175781 2.003906 -0.09375 1.859375 -0.03125 C 1.710938 0.0195312 1.539062 0.046875 1.34375 0.046875 Z M 1.296875 -2.328125 C 1.097656 -2.328125 0.925781 -2.25 0.78125 -2.09375 C 0.644531 -1.9375 0.5625 -1.738281 0.53125 -1.5 L 0.546875 -1.484375 L 2.015625 -1.484375 L 2.015625 -1.5625 C 2.015625 -1.78125 1.953125 -1.960938 1.828125 -2.109375 C 1.703125 -2.253906 1.523438 -2.328125 1.296875 -2.328125 Z M 1.296875 -2.328125 "/></g></g></g><g fill="#22e3dd" fill-opacity="1"><g transform="translate(29.580247, 43.488235)"><g><path d="M 0.171875 -3.4375 L 0.171875 -3.640625 L 0.828125 -3.640625 L 0.828125 -0.234375 L 1.203125 -0.203125 L 1.203125 0 L 0.171875 0 L 0.171875 -0.203125 L 0.546875 -0.234375 L 0.546875 -3.40625 Z M 0.171875 -3.4375 "/></g></g></g><g fill="#22e3dd" fill-opacity="1"><g transform="translate(31.142337, 43.488235)"><g><path d="M 0.21875 -1.296875 C 0.21875 -1.671875 0.320312 -1.976562 0.53125 -2.21875 C 0.738281 -2.457031 1.007812 -2.578125 1.34375 -2.578125 C 1.675781 -2.578125 1.941406 -2.457031 2.140625 -2.21875 C 2.347656 -1.976562 2.453125 -1.671875 2.453125 -1.296875 L 2.453125 -1.21875 C 2.453125 -0.84375 2.347656 -0.535156 2.140625 -0.296875 C 1.941406 -0.0664062 1.675781 0.046875 1.34375 0.046875 C 1.007812 0.046875 0.738281 -0.0664062 0.53125 -0.296875 C 0.320312 -0.535156 0.21875 -0.84375 0.21875 -1.21875 Z M 0.5 -1.21875 C 0.5 -0.925781 0.570312 -0.679688 0.71875 -0.484375 C 0.875 -0.285156 1.082031 -0.1875 1.34375 -0.1875 C 1.601562 -0.1875 1.804688 -0.285156 1.953125 -0.484375 C 2.109375 -0.679688 2.1875 -0.925781 2.1875 -1.21875 L 2.1875 -1.296875 C 2.1875 -1.585938 2.109375 -1.832031 1.953125 -2.03125 C 1.804688 -2.226562 1.601562 -2.328125 1.34375 -2.328125 C 1.082031 -2.328125 0.875 -2.226562 0.71875 -2.03125 C 0.570312 -1.832031 0.5 -1.585938 0.5 -1.296875 Z M 0.5 -1.21875 "/></g></g></g><g fill="#22e3dd" fill-opacity="1"><g transform="translate(33.969185, 43.488235)"><g><path d="M 0.15625 -2.3125 L 0.15625 -2.53125 L 0.765625 -2.53125 L 0.796875 -2.140625 C 0.878906 -2.273438 0.988281 -2.378906 1.125 -2.453125 C 1.257812 -2.535156 1.414062 -2.578125 1.59375 -2.578125 C 1.894531 -2.578125 2.128906 -2.453125 2.296875 -2.203125 C 2.472656 -1.960938 2.5625 -1.640625 2.5625 -1.234375 L 2.5625 -1.1875 C 2.5625 -0.8125 2.472656 -0.507812 2.296875 -0.28125 C 2.128906 -0.0625 1.894531 0.046875 1.59375 0.046875 C 1.414062 0.046875 1.257812 0.015625 1.125 -0.046875 C 1 -0.117188 0.894531 -0.21875 0.8125 -0.34375 L 0.8125 0.734375 L 1.1875 0.765625 L 1.1875 0.96875 L 0.15625 0.96875 L 0.15625 0.765625 L 0.53125 0.734375 L 0.53125 -2.28125 Z M 2.28125 -1.234375 C 2.28125 -1.554688 2.21875 -1.816406 2.09375 -2.015625 C 1.96875 -2.222656 1.78125 -2.328125 1.53125 -2.328125 C 1.34375 -2.328125 1.191406 -2.28125 1.078125 -2.1875 C 0.960938 -2.101562 0.875 -1.988281 0.8125 -1.84375 L 0.8125 -0.625 C 0.875 -0.488281 0.960938 -0.378906 1.078125 -0.296875 C 1.203125 -0.222656 1.351562 -0.1875 1.53125 -0.1875 C 1.78125 -0.1875 1.96875 -0.273438 2.09375 -0.453125 C 2.21875 -0.640625 2.28125 -0.882812 2.28125 -1.1875 Z M 2.28125 -1.234375 "/></g></g></g><g fill="#22e3dd" fill-opacity="1"><g transform="translate(36.901039, 43.488235)"><g><path d="M 1.34375 0.046875 C 1.019531 0.046875 0.753906 -0.0664062 0.546875 -0.296875 C 0.335938 -0.535156 0.234375 -0.832031 0.234375 -1.1875 L 0.234375 -1.3125 C 0.234375 -1.675781 0.335938 -1.976562 0.546875 -2.21875 C 0.753906 -2.457031 1.003906 -2.578125 1.296875 -2.578125 C 1.609375 -2.578125 1.851562 -2.476562 2.03125 -2.28125 C 2.207031 -2.082031 2.296875 -1.820312 2.296875 -1.5 L 2.296875 -1.25 L 0.515625 -1.25 L 0.515625 -1.1875 C 0.515625 -0.90625 0.585938 -0.664062 0.734375 -0.46875 C 0.890625 -0.28125 1.09375 -0.1875 1.34375 -0.1875 C 1.507812 -0.1875 1.65625 -0.207031 1.78125 -0.25 C 1.90625 -0.300781 2.007812 -0.375 2.09375 -0.46875 L 2.21875 -0.28125 C 2.125 -0.175781 2.003906 -0.09375 1.859375 -0.03125 C 1.710938 0.0195312 1.539062 0.046875 1.34375 0.046875 Z M 1.296875 -2.328125 C 1.097656 -2.328125 0.925781 -2.25 0.78125 -2.09375 C 0.644531 -1.9375 0.5625 -1.738281 0.53125 -1.5 L 0.546875 -1.484375 L 2.015625 -1.484375 L 2.015625 -1.5625 C 2.015625 -1.78125 1.953125 -1.960938 1.828125 -2.109375 C 1.703125 -2.253906 1.523438 -2.328125 1.296875 -2.328125 Z M 1.296875 -2.328125 "/></g></g></g><g fill="#22e3dd" fill-opacity="1"><g transform="translate(39.611212, 43.488235)"><g><path d="M 0.828125 -2.53125 L 0.859375 -2.109375 L 0.859375 -2.078125 C 0.929688 -2.234375 1.03125 -2.351562 1.15625 -2.4375 C 1.28125 -2.53125 1.425781 -2.578125 1.59375 -2.578125 C 1.632812 -2.578125 1.671875 -2.570312 1.703125 -2.5625 C 1.734375 -2.5625 1.757812 -2.554688 1.78125 -2.546875 L 1.75 -2.28125 L 1.546875 -2.296875 C 1.367188 -2.296875 1.222656 -2.242188 1.109375 -2.140625 C 0.992188 -2.046875 0.910156 -1.914062 0.859375 -1.75 L 0.859375 -0.234375 L 1.25 -0.203125 L 1.25 0 L 0.203125 0 L 0.203125 -0.203125 L 0.59375 -0.234375 L 0.59375 -2.28125 L 0.203125 -2.3125 L 0.203125 -2.53125 Z M 0.828125 -2.53125 "/></g></g></g><g clip-path="url(#id1)"><path fill="#ffffff" d="M 37.261719 25.691406 L 10.925781 25.691406 C 9.359375 25.691406 8.0625 24.539062 7.804688 23.03125 L 40.378906 23.03125 C 40.128906 24.539062 38.828125 25.691406 37.261719 25.691406 Z M 9.800781 4.277344 C 9.800781 3.894531 10.097656 3.59375 10.476562 3.59375 L 37.703125 3.59375 C 38.082031 3.59375 38.382812 3.894531 38.382812 4.277344 L 38.382812 21.960938 L 9.800781 21.960938 Z M 40.949219 21.96875 L 39.441406 21.96875 L 39.441406 4.277344 C 39.441406 3.316406 38.667969 2.53125 37.707031 2.53125 L 10.476562 2.53125 C 9.523438 2.53125 8.746094 3.316406 8.746094 4.277344 L 8.746094 21.960938 L 7.238281 21.960938 C 6.945312 21.96875 6.710938 22.203125 6.710938 22.5 C 6.710938 24.847656 8.601562 26.753906 10.925781 26.753906 L 37.261719 26.753906 C 39.585938 26.753906 41.476562 24.847656 41.476562 22.5 C 41.476562 22.203125 41.246094 21.96875 40.949219 21.96875 " fill-opacity="1" fill-rule="nonzero"/></g><path fill="#ffffff" d="M 35.359375 19.59375 L 12.828125 19.59375 L 12.828125 5.996094 L 35.355469 5.996094 L 35.355469 19.59375 Z M 35.886719 4.933594 L 12.300781 4.933594 C 12.007812 4.933594 11.773438 5.167969 11.773438 5.464844 L 11.773438 20.125 C 11.773438 20.421875 12.007812 20.660156 12.300781 20.660156 L 35.882812 20.660156 C 36.175781 20.660156 36.410156 20.421875 36.410156 20.125 L 36.410156 5.464844 C 36.414062 5.167969 36.175781 4.933594 35.886719 4.933594 " fill-opacity="1" fill-rule="nonzero"/><path fill="#ffffff" d="M 22.609375 17.015625 C 22.671875 17.039062 22.726562 17.046875 22.785156 17.046875 C 23 17.046875 23.203125 16.910156 23.277344 16.691406 L 25.867188 9.246094 C 25.96875 8.96875 25.820312 8.664062 25.550781 8.566406 C 25.273438 8.46875 24.972656 8.617188 24.875 8.890625 L 22.285156 16.335938 C 22.191406 16.613281 22.339844 16.917969 22.609375 17.015625 Z M 30.839844 12.90625 L 27.316406 15.722656 C 27.085938 15.90625 27.046875 16.238281 27.230469 16.46875 C 27.332031 16.597656 27.488281 16.671875 27.640625 16.671875 C 27.753906 16.671875 27.867188 16.632812 27.96875 16.554688 L 32.011719 13.324219 C 32.132812 13.230469 32.210938 13.074219 32.210938 12.914062 C 32.210938 12.753906 32.136719 12.601562 32.015625 12.5 L 27.804688 9.03125 C 27.574219 8.847656 27.246094 8.878906 27.066406 9.109375 C 26.882812 9.339844 26.914062 9.675781 27.140625 9.855469 Z M 20.21875 16.554688 C 20.320312 16.632812 20.433594 16.671875 20.546875 16.671875 C 20.703125 16.671875 20.855469 16.597656 20.957031 16.46875 C 21.140625 16.238281 21.097656 15.90625 20.871094 15.722656 L 17.347656 12.90625 L 21.046875 9.855469 C 21.273438 9.671875 21.304688 9.335938 21.121094 9.109375 C 20.9375 8.878906 20.605469 8.847656 20.382812 9.03125 L 16.171875 12.5 C 16.050781 12.601562 15.976562 12.75 15.976562 12.914062 C 15.976562 13.074219 16.054688 13.230469 16.179688 13.324219 L 20.21875 16.554688 " fill-opacity="1" fill-rule="nonzero"/></svg>