<svg xmlns="http://www.w3.org/2000/svg" xmlns:xlink="http://www.w3.org/1999/xlink" width="500" zoomAndPan="magnify" viewBox="0 0 375 374.999991" height="500" preserveAspectRatio="xMidYMid meet" version="1.0"><defs><g/><clipPath id="id1"><path d="M 140.03125 103.304688 L 235.179688 103.304688 L 235.179688 201.554688 L 140.03125 201.554688 Z M 140.03125 103.304688 " clip-rule="nonzero"/></clipPath></defs><g fill="#000000" fill-opacity="1"><g transform="translate(131.707031, 233.316546)"><g><path d="M 1.140625 -0.875 L 3.765625 -0.875 L 3.765625 -22.59375 L 1.140625 -22.59375 L 1.140625 -23.46875 L 18.3125 -23.46875 L 18.3125 -18.734375 L 17.4375 -18.734375 L 17.4375 -22.59375 L 4.640625 -22.59375 L 4.640625 -12.4375 L 15.046875 -12.4375 L 15.046875 -11.53125 L 4.640625 -11.53125 L 4.640625 -0.875 L 7.265625 -0.875 L 7.265625 0 L 1.140625 0 Z M 1.140625 -0.875 "/></g></g><g transform="translate(151.784178, 233.316546)"><g><path d="M 4.765625 -17.4375 L 4.9375 -14.40625 L 4.9375 -13.8125 C 5.414062 -15.050781 6.132812 -16.015625 7.09375 -16.703125 C 8.050781 -17.398438 9.226562 -17.75 10.625 -17.75 C 10.863281 -17.75 11.085938 -17.726562 11.296875 -17.6875 C 11.515625 -17.65625 11.695312 -17.617188 11.84375 -17.578125 L 11.75 -16.8125 L 10.625 -16.90625 C 9.0625 -16.90625 7.789062 -16.398438 6.8125 -15.390625 C 5.84375 -14.390625 5.21875 -13.066406 4.9375 -11.421875 L 4.9375 -0.875 L 7.5625 -0.875 L 7.5625 0 L 1.4375 0 L 1.4375 -0.875 L 4.0625 -0.875 L 4.0625 -16.5625 L 1.4375 -16.5625 L 1.4375 -17.4375 Z M 4.765625 -17.4375 "/></g></g><g transform="translate(164.723142, 233.316546)"><g><path d="M 14.265625 0 C 14.117188 -0.757812 14.019531 -1.328125 13.96875 -1.703125 C 13.925781 -2.085938 13.90625 -2.503906 13.90625 -2.953125 L 13.90625 -3.203125 C 13.238281 -2.160156 12.304688 -1.304688 11.109375 -0.640625 C 9.910156 0.015625 8.5 0.34375 6.875 0.34375 C 5.269531 0.34375 4 -0.09375 3.0625 -0.96875 C 2.132812 -1.84375 1.671875 -2.992188 1.671875 -4.421875 C 1.671875 -5.984375 2.382812 -7.257812 3.8125 -8.25 C 5.25 -9.238281 7.171875 -9.734375 9.578125 -9.734375 L 13.90625 -9.734375 L 13.90625 -12.28125 C 13.90625 -13.726562 13.441406 -14.859375 12.515625 -15.671875 C 11.585938 -16.484375 10.28125 -16.890625 8.59375 -16.890625 C 7.476562 -16.890625 6.441406 -16.734375 5.484375 -16.421875 C 4.523438 -16.109375 3.707031 -15.675781 3.03125 -15.125 L 3.015625 -12.34375 L 2.140625 -12.34375 L 2.15625 -15.65625 C 2.988281 -16.269531 3.960938 -16.769531 5.078125 -17.15625 C 6.203125 -17.550781 7.375 -17.75 8.59375 -17.75 C 10.457031 -17.75 11.953125 -17.273438 13.078125 -16.328125 C 14.210938 -15.390625 14.78125 -14.03125 14.78125 -12.25 L 14.78125 -3.515625 C 14.78125 -3.066406 14.796875 -2.617188 14.828125 -2.171875 C 14.867188 -1.734375 14.929688 -1.300781 15.015625 -0.875 L 17.109375 -0.875 L 17.109375 0 Z M 6.875 -0.515625 C 8.519531 -0.515625 9.945312 -0.882812 11.15625 -1.625 C 12.375 -2.363281 13.289062 -3.390625 13.90625 -4.703125 L 13.90625 -8.84375 L 9.625 -8.84375 C 7.476562 -8.84375 5.757812 -8.425781 4.46875 -7.59375 C 3.1875 -6.757812 2.546875 -5.675781 2.546875 -4.34375 C 2.546875 -3.257812 2.941406 -2.347656 3.734375 -1.609375 C 4.535156 -0.878906 5.582031 -0.515625 6.875 -0.515625 Z M 6.875 -0.515625 "/></g></g><g transform="translate(182.963375, 233.316546)"><g><path d="M 1.4375 -0.875 L 4.0625 -0.875 L 4.0625 -16.5625 L 1.4375 -16.5625 L 1.4375 -17.4375 L 4.796875 -17.4375 L 4.921875 -13.84375 C 5.441406 -15.082031 6.207031 -16.039062 7.21875 -16.71875 C 8.226562 -17.40625 9.472656 -17.75 10.953125 -17.75 C 12.859375 -17.75 14.285156 -17.148438 15.234375 -15.953125 C 16.179688 -14.753906 16.65625 -12.859375 16.65625 -10.265625 L 16.65625 -0.875 L 19.28125 -0.875 L 19.28125 0 L 13.171875 0 L 13.171875 -0.875 L 15.796875 -0.875 L 15.796875 -10.296875 C 15.796875 -12.710938 15.363281 -14.414062 14.5 -15.40625 C 13.632812 -16.394531 12.457031 -16.890625 10.96875 -16.890625 C 9.09375 -16.890625 7.675781 -16.328125 6.71875 -15.203125 C 5.757812 -14.078125 5.164062 -12.640625 4.9375 -10.890625 L 4.9375 -0.875 L 7.5625 -0.875 L 7.5625 0 L 1.4375 0 Z M 1.4375 -0.875 "/></g></g><g transform="translate(204.232905, 233.316546)"><g><path d="M 3.71875 0 L 2.34375 0 L 2.34375 -2.09375 L 3.71875 -2.09375 Z M 3.71875 0 "/></g></g><g transform="translate(211.387202, 233.316546)"><g><path d="M 1.4375 -0.875 L 4.0625 -0.875 L 4.0625 -16.5625 L 1.4375 -16.5625 L 1.4375 -17.4375 L 4.8125 -17.4375 L 4.9375 -13.84375 C 5.457031 -15.070312 6.210938 -16.03125 7.203125 -16.71875 C 8.191406 -17.40625 9.394531 -17.75 10.8125 -17.75 C 12.3125 -17.75 13.53125 -17.363281 14.46875 -16.59375 C 15.414062 -15.832031 16.066406 -14.648438 16.421875 -13.046875 C 16.878906 -14.535156 17.628906 -15.691406 18.671875 -16.515625 C 19.722656 -17.347656 21.035156 -17.765625 22.609375 -17.765625 C 24.523438 -17.765625 25.984375 -17.132812 26.984375 -15.875 C 27.984375 -14.625 28.484375 -12.648438 28.484375 -9.953125 L 28.484375 -0.890625 L 31.109375 -0.890625 L 31.109375 -0.015625 L 24.96875 -0.015625 L 24.96875 -0.890625 L 27.609375 -0.890625 L 27.609375 -9.984375 C 27.609375 -12.515625 27.15625 -14.300781 26.25 -15.34375 C 25.34375 -16.382812 24.140625 -16.90625 22.640625 -16.90625 C 20.796875 -16.90625 19.398438 -16.347656 18.453125 -15.234375 C 17.503906 -14.117188 16.910156 -12.679688 16.671875 -10.921875 C 16.671875 -10.710938 16.675781 -10.53125 16.6875 -10.375 C 16.695312 -10.21875 16.703125 -10.0625 16.703125 -9.90625 L 16.703125 -0.875 L 19.34375 -0.875 L 19.34375 0 L 13.203125 0 L 13.203125 -0.875 L 15.828125 -0.875 L 15.828125 -9.96875 C 15.828125 -12.507812 15.375 -14.296875 14.46875 -15.328125 C 13.5625 -16.367188 12.351562 -16.890625 10.84375 -16.890625 C 9.039062 -16.890625 7.671875 -16.359375 6.734375 -15.296875 C 5.796875 -14.242188 5.203125 -12.875 4.953125 -11.1875 L 4.953125 -0.875 L 7.578125 -0.875 L 7.578125 0 L 1.4375 0 Z M 1.4375 -0.875 "/></g></g></g><g fill="#22e3dd" fill-opacity="1"><g transform="translate(125.156654, 258.394085)"><g><path d="M 3.515625 -11.34375 L 2.28125 -11.25 L 4.1875 -3.421875 L 4.5625 -1.578125 L 4.609375 -1.578125 L 5.0625 -3.421875 L 7.71875 -12.09375 L 8.65625 -12.09375 L 11.296875 -3.421875 L 11.734375 -1.546875 L 11.78125 -1.5625 L 12.171875 -3.421875 L 14.0625 -11.25 L 12.828125 -11.34375 L 12.828125 -12.09375 L 15.984375 -12.09375 L 15.984375 -11.34375 L 15.078125 -11.28125 L 12.265625 0 L 11.328125 0 L 8.515625 -9.265625 L 8.203125 -10.546875 L 8.15625 -10.546875 L 7.859375 -9.265625 L 5.015625 0 L 4.078125 0 L 1.265625 -11.28125 L 0.359375 -11.34375 L 0.359375 -12.09375 L 3.515625 -12.09375 Z M 3.515625 -11.34375 "/></g></g></g><g fill="#22e3dd" fill-opacity="1"><g transform="translate(141.72088, 258.394085)"><g><path d="M 4.765625 0.171875 C 3.640625 0.171875 2.703125 -0.238281 1.953125 -1.0625 C 1.210938 -1.894531 0.84375 -2.945312 0.84375 -4.21875 L 0.84375 -4.6875 C 0.84375 -5.96875 1.210938 -7.03125 1.953125 -7.875 C 2.691406 -8.71875 3.582031 -9.140625 4.625 -9.140625 C 5.726562 -9.140625 6.59375 -8.789062 7.21875 -8.09375 C 7.851562 -7.40625 8.171875 -6.476562 8.171875 -5.3125 L 8.171875 -4.46875 L 1.828125 -4.46875 L 1.828125 -4.21875 C 1.828125 -3.21875 2.097656 -2.375 2.640625 -1.6875 C 3.179688 -1.007812 3.890625 -0.671875 4.765625 -0.671875 C 5.378906 -0.671875 5.90625 -0.753906 6.34375 -0.921875 C 6.78125 -1.085938 7.15625 -1.332031 7.46875 -1.65625 L 7.890625 -0.984375 C 7.546875 -0.628906 7.113281 -0.347656 6.59375 -0.140625 C 6.082031 0.0664062 5.472656 0.171875 4.765625 0.171875 Z M 4.625 -8.296875 C 3.894531 -8.296875 3.28125 -8.015625 2.78125 -7.453125 C 2.28125 -6.890625 1.988281 -6.1875 1.90625 -5.34375 L 1.921875 -5.296875 L 7.1875 -5.296875 L 7.1875 -5.546875 C 7.1875 -6.328125 6.957031 -6.976562 6.5 -7.5 C 6.039062 -8.03125 5.414062 -8.296875 4.625 -8.296875 Z M 4.625 -8.296875 "/></g></g></g><g fill="#22e3dd" fill-opacity="1"><g transform="translate(151.357139, 258.394085)"><g><path d="M 8.53125 -4.234375 C 8.53125 -2.890625 8.222656 -1.816406 7.609375 -1.015625 C 7.003906 -0.222656 6.164062 0.171875 5.09375 0.171875 C 4.4375 0.171875 3.867188 0.0390625 3.390625 -0.21875 C 2.921875 -0.476562 2.535156 -0.859375 2.234375 -1.359375 L 2.140625 0 L 1.28125 0 L 1.28125 -12.109375 L -0.0625 -12.203125 L -0.0625 -12.953125 L 2.28125 -12.953125 L 2.28125 -7.578125 C 2.570312 -8.078125 2.953125 -8.460938 3.421875 -8.734375 C 3.890625 -9.003906 4.441406 -9.140625 5.078125 -9.140625 C 6.160156 -9.140625 7.003906 -8.707031 7.609375 -7.84375 C 8.222656 -6.988281 8.53125 -5.847656 8.53125 -4.421875 Z M 7.515625 -4.421875 C 7.515625 -5.566406 7.289062 -6.492188 6.84375 -7.203125 C 6.40625 -7.921875 5.753906 -8.28125 4.890625 -8.28125 C 4.203125 -8.28125 3.644531 -8.109375 3.21875 -7.765625 C 2.789062 -7.421875 2.476562 -6.984375 2.28125 -6.453125 L 2.28125 -2.390625 C 2.5 -1.867188 2.828125 -1.453125 3.265625 -1.140625 C 3.703125 -0.835938 4.253906 -0.6875 4.921875 -0.6875 C 5.773438 -0.6875 6.421875 -1.003906 6.859375 -1.640625 C 7.296875 -2.285156 7.515625 -3.148438 7.515625 -4.234375 Z M 7.515625 -4.421875 "/></g></g></g><g fill="#22e3dd" fill-opacity="1"><g transform="translate(161.250605, 258.394085)"><g/></g></g><g fill="#22e3dd" fill-opacity="1"><g transform="translate(165.875497, 258.394085)"><g><path d="M 5.453125 -12.09375 C 6.929688 -12.09375 8.148438 -11.597656 9.109375 -10.609375 C 10.078125 -9.617188 10.5625 -8.351562 10.5625 -6.8125 L 10.5625 -5.265625 C 10.5625 -3.710938 10.078125 -2.445312 9.109375 -1.46875 C 8.148438 -0.488281 6.929688 0 5.453125 0 L 0.59375 0 L 0.59375 -0.734375 L 1.9375 -0.84375 L 1.9375 -11.234375 L 0.59375 -11.34375 L 0.59375 -12.09375 Z M 2.9375 -11.234375 L 2.9375 -0.84375 L 5.453125 -0.84375 C 6.648438 -0.84375 7.632812 -1.257812 8.40625 -2.09375 C 9.175781 -2.925781 9.5625 -3.984375 9.5625 -5.265625 L 9.5625 -6.84375 C 9.5625 -8.101562 9.171875 -9.148438 8.390625 -9.984375 C 7.617188 -10.816406 6.640625 -11.234375 5.453125 -11.234375 Z M 2.9375 -11.234375 "/></g></g></g><g fill="#22e3dd" fill-opacity="1"><g transform="translate(177.992546, 258.394085)"><g><path d="M 4.765625 0.171875 C 3.640625 0.171875 2.703125 -0.238281 1.953125 -1.0625 C 1.210938 -1.894531 0.84375 -2.945312 0.84375 -4.21875 L 0.84375 -4.6875 C 0.84375 -5.96875 1.210938 -7.03125 1.953125 -7.875 C 2.691406 -8.71875 3.582031 -9.140625 4.625 -9.140625 C 5.726562 -9.140625 6.59375 -8.789062 7.21875 -8.09375 C 7.851562 -7.40625 8.171875 -6.476562 8.171875 -5.3125 L 8.171875 -4.46875 L 1.828125 -4.46875 L 1.828125 -4.21875 C 1.828125 -3.21875 2.097656 -2.375 2.640625 -1.6875 C 3.179688 -1.007812 3.890625 -0.671875 4.765625 -0.671875 C 5.378906 -0.671875 5.90625 -0.753906 6.34375 -0.921875 C 6.78125 -1.085938 7.15625 -1.332031 7.46875 -1.65625 L 7.890625 -0.984375 C 7.546875 -0.628906 7.113281 -0.347656 6.59375 -0.140625 C 6.082031 0.0664062 5.472656 0.171875 4.765625 0.171875 Z M 4.625 -8.296875 C 3.894531 -8.296875 3.28125 -8.015625 2.78125 -7.453125 C 2.28125 -6.890625 1.988281 -6.1875 1.90625 -5.34375 L 1.921875 -5.296875 L 7.1875 -5.296875 L 7.1875 -5.546875 C 7.1875 -6.328125 6.957031 -6.976562 6.5 -7.5 C 6.039062 -8.03125 5.414062 -8.296875 4.625 -8.296875 Z M 4.625 -8.296875 "/></g></g></g><g fill="#22e3dd" fill-opacity="1"><g transform="translate(187.628803, 258.394085)"><g><path d="M 3.40625 -8.25 L 2.296875 -8.15625 L 4.53125 -2.25 L 4.828125 -1.203125 L 4.875 -1.203125 L 5.1875 -2.25 L 7.390625 -8.15625 L 6.28125 -8.25 L 6.28125 -8.984375 L 9.296875 -8.984375 L 9.296875 -8.25 L 8.421875 -8.171875 L 5.25 0 L 4.453125 0 L 1.265625 -8.171875 L 0.390625 -8.25 L 0.390625 -8.984375 L 3.40625 -8.984375 Z M 3.40625 -8.25 "/></g></g></g><g fill="#22e3dd" fill-opacity="1"><g transform="translate(197.704798, 258.394085)"><g><path d="M 4.765625 0.171875 C 3.640625 0.171875 2.703125 -0.238281 1.953125 -1.0625 C 1.210938 -1.894531 0.84375 -2.945312 0.84375 -4.21875 L 0.84375 -4.6875 C 0.84375 -5.96875 1.210938 -7.03125 1.953125 -7.875 C 2.691406 -8.71875 3.582031 -9.140625 4.625 -9.140625 C 5.726562 -9.140625 6.59375 -8.789062 7.21875 -8.09375 C 7.851562 -7.40625 8.171875 -6.476562 8.171875 -5.3125 L 8.171875 -4.46875 L 1.828125 -4.46875 L 1.828125 -4.21875 C 1.828125 -3.21875 2.097656 -2.375 2.640625 -1.6875 C 3.179688 -1.007812 3.890625 -0.671875 4.765625 -0.671875 C 5.378906 -0.671875 5.90625 -0.753906 6.34375 -0.921875 C 6.78125 -1.085938 7.15625 -1.332031 7.46875 -1.65625 L 7.890625 -0.984375 C 7.546875 -0.628906 7.113281 -0.347656 6.59375 -0.140625 C 6.082031 0.0664062 5.472656 0.171875 4.765625 0.171875 Z M 4.625 -8.296875 C 3.894531 -8.296875 3.28125 -8.015625 2.78125 -7.453125 C 2.28125 -6.890625 1.988281 -6.1875 1.90625 -5.34375 L 1.921875 -5.296875 L 7.1875 -5.296875 L 7.1875 -5.546875 C 7.1875 -6.328125 6.957031 -6.976562 6.5 -7.5 C 6.039062 -8.03125 5.414062 -8.296875 4.625 -8.296875 Z M 4.625 -8.296875 "/></g></g></g><g fill="#22e3dd" fill-opacity="1"><g transform="translate(207.341055, 258.394085)"><g><path d="M 0.609375 -12.203125 L 0.609375 -12.953125 L 2.953125 -12.953125 L 2.953125 -0.84375 L 4.296875 -0.734375 L 4.296875 0 L 0.609375 0 L 0.609375 -0.734375 L 1.953125 -0.84375 L 1.953125 -12.109375 Z M 0.609375 -12.203125 "/></g></g></g><g fill="#22e3dd" fill-opacity="1"><g transform="translate(212.895204, 258.394085)"><g><path d="M 0.8125 -4.625 C 0.8125 -5.945312 1.171875 -7.03125 1.890625 -7.875 C 2.617188 -8.71875 3.578125 -9.140625 4.765625 -9.140625 C 5.972656 -9.140625 6.9375 -8.71875 7.65625 -7.875 C 8.382812 -7.03125 8.75 -5.945312 8.75 -4.625 L 8.75 -4.34375 C 8.75 -3.019531 8.382812 -1.9375 7.65625 -1.09375 C 6.9375 -0.25 5.984375 0.171875 4.796875 0.171875 C 3.585938 0.171875 2.617188 -0.25 1.890625 -1.09375 C 1.171875 -1.9375 0.8125 -3.019531 0.8125 -4.34375 Z M 1.796875 -4.34375 C 1.796875 -3.3125 2.054688 -2.441406 2.578125 -1.734375 C 3.109375 -1.023438 3.847656 -0.671875 4.796875 -0.671875 C 5.710938 -0.671875 6.429688 -1.023438 6.953125 -1.734375 C 7.484375 -2.441406 7.75 -3.3125 7.75 -4.34375 L 7.75 -4.625 C 7.75 -5.644531 7.484375 -6.507812 6.953125 -7.21875 C 6.429688 -7.9375 5.703125 -8.296875 4.765625 -8.296875 C 3.835938 -8.296875 3.109375 -7.9375 2.578125 -7.21875 C 2.054688 -6.507812 1.796875 -5.644531 1.796875 -4.625 Z M 1.796875 -4.34375 "/></g></g></g><g fill="#22e3dd" fill-opacity="1"><g transform="translate(222.946309, 258.394085)"><g><path d="M 0.546875 -8.25 L 0.546875 -8.984375 L 2.71875 -8.984375 L 2.84375 -7.59375 C 3.144531 -8.082031 3.53125 -8.460938 4 -8.734375 C 4.476562 -9.003906 5.035156 -9.140625 5.671875 -9.140625 C 6.753906 -9.140625 7.597656 -8.707031 8.203125 -7.84375 C 8.816406 -6.988281 9.125 -5.847656 9.125 -4.421875 L 9.125 -4.234375 C 9.125 -2.890625 8.816406 -1.816406 8.203125 -1.015625 C 7.597656 -0.222656 6.757812 0.171875 5.6875 0.171875 C 5.0625 0.171875 4.507812 0.0507812 4.03125 -0.1875 C 3.5625 -0.425781 3.175781 -0.769531 2.875 -1.21875 L 2.875 2.609375 L 4.234375 2.71875 L 4.234375 3.453125 L 0.546875 3.453125 L 0.546875 2.71875 L 1.890625 2.609375 L 1.890625 -8.140625 Z M 8.125 -4.421875 C 8.125 -5.554688 7.894531 -6.484375 7.4375 -7.203125 C 6.988281 -7.921875 6.328125 -8.28125 5.453125 -8.28125 C 4.785156 -8.28125 4.242188 -8.117188 3.828125 -7.796875 C 3.410156 -7.484375 3.09375 -7.070312 2.875 -6.5625 L 2.875 -2.25 C 3.101562 -1.757812 3.429688 -1.375 3.859375 -1.09375 C 4.285156 -0.8125 4.820312 -0.671875 5.46875 -0.671875 C 6.34375 -0.671875 7.003906 -0.992188 7.453125 -1.640625 C 7.898438 -2.296875 8.125 -3.160156 8.125 -4.234375 Z M 8.125 -4.421875 "/></g></g></g><g fill="#22e3dd" fill-opacity="1"><g transform="translate(233.370777, 258.394085)"><g><path d="M 4.765625 0.171875 C 3.640625 0.171875 2.703125 -0.238281 1.953125 -1.0625 C 1.210938 -1.894531 0.84375 -2.945312 0.84375 -4.21875 L 0.84375 -4.6875 C 0.84375 -5.96875 1.210938 -7.03125 1.953125 -7.875 C 2.691406 -8.71875 3.582031 -9.140625 4.625 -9.140625 C 5.726562 -9.140625 6.59375 -8.789062 7.21875 -8.09375 C 7.851562 -7.40625 8.171875 -6.476562 8.171875 -5.3125 L 8.171875 -4.46875 L 1.828125 -4.46875 L 1.828125 -4.21875 C 1.828125 -3.21875 2.097656 -2.375 2.640625 -1.6875 C 3.179688 -1.007812 3.890625 -0.671875 4.765625 -0.671875 C 5.378906 -0.671875 5.90625 -0.753906 6.34375 -0.921875 C 6.78125 -1.085938 7.15625 -1.332031 7.46875 -1.65625 L 7.890625 -0.984375 C 7.546875 -0.628906 7.113281 -0.347656 6.59375 -0.140625 C 6.082031 0.0664062 5.472656 0.171875 4.765625 0.171875 Z M 4.625 -8.296875 C 3.894531 -8.296875 3.28125 -8.015625 2.78125 -7.453125 C 2.28125 -6.890625 1.988281 -6.1875 1.90625 -5.34375 L 1.921875 -5.296875 L 7.1875 -5.296875 L 7.1875 -5.546875 C 7.1875 -6.328125 6.957031 -6.976562 6.5 -7.5 C 6.039062 -8.03125 5.414062 -8.296875 4.625 -8.296875 Z M 4.625 -8.296875 "/></g></g></g><g fill="#22e3dd" fill-opacity="1"><g transform="translate(243.007034, 258.394085)"><g><path d="M 2.953125 -8.984375 L 3.078125 -7.484375 L 3.078125 -7.375 C 3.335938 -7.925781 3.6875 -8.359375 4.125 -8.671875 C 4.5625 -8.984375 5.082031 -9.140625 5.6875 -9.140625 C 5.8125 -9.140625 5.929688 -9.128906 6.046875 -9.109375 C 6.171875 -9.097656 6.269531 -9.082031 6.34375 -9.0625 L 6.21875 -8.125 L 5.484375 -8.171875 C 4.859375 -8.171875 4.34375 -7.992188 3.9375 -7.640625 C 3.539062 -7.296875 3.253906 -6.816406 3.078125 -6.203125 L 3.078125 -0.84375 L 4.4375 -0.734375 L 4.4375 0 L 0.734375 0 L 0.734375 -0.734375 L 2.09375 -0.84375 L 2.09375 -8.140625 L 0.734375 -8.25 L 0.734375 -8.984375 Z M 2.953125 -8.984375 "/></g></g></g><g clip-path="url(#id1)"><path fill="#000000" d="M 232.101562 155.5 L 225.960938 155.5 L 225.960938 153.964844 C 225.960938 152.734375 225.484375 151.574219 224.621094 150.710938 C 223.320312 149.410156 221.316406 149.089844 219.648438 149.71875 C 219.449219 148.941406 219.058594 148.226562 218.480469 147.640625 C 217.183594 146.339844 215.175781 146.019531 213.511719 146.648438 C 213.3125 145.871094 212.917969 145.15625 212.34375 144.570312 C 210.601562 142.828125 207.566406 142.828125 205.820312 144.570312 C 205.246094 145.15625 204.855469 145.871094 204.652344 146.648438 C 202.988281 146.019531 200.984375 146.339844 199.683594 147.640625 C 198.820312 148.503906 198.339844 149.664062 198.339844 150.894531 L 198.339844 155.5 L 176.859375 155.5 L 176.859375 150.894531 C 176.859375 149.664062 176.378906 148.503906 175.507812 147.640625 C 174.21875 146.339844 172.210938 146.019531 170.546875 146.648438 C 170.347656 145.871094 169.953125 145.15625 169.371094 144.570312 C 167.632812 142.828125 164.601562 142.828125 162.867188 144.570312 C 162.28125 145.15625 161.890625 145.871094 161.679688 146.648438 C 160.023438 146.019531 158.019531 146.339844 156.726562 147.640625 C 156.144531 148.226562 155.75 148.941406 155.542969 149.71875 C 153.886719 149.089844 151.878906 149.410156 150.589844 150.710938 C 149.71875 151.574219 149.238281 152.734375 149.238281 153.964844 L 149.238281 155.5 L 143.101562 155.5 L 143.101562 121.726562 L 232.101562 121.726562 Z M 222.894531 173.644531 L 218.289062 185.925781 L 218.289062 189.273438 L 202.945312 189.273438 L 202.945312 185.566406 L 202.492188 185.113281 C 200.488281 183.105469 195.273438 176.894531 195.273438 172.421875 L 195.273438 164.710938 C 195.273438 164.300781 195.429688 163.917969 195.726562 163.628906 C 196.300781 163.046875 197.3125 163.046875 197.886719 163.628906 C 198.183594 163.917969 198.339844 164.300781 198.339844 164.710938 L 198.339844 170.851562 L 201.410156 170.851562 L 201.410156 150.894531 C 201.410156 150.484375 201.566406 150.101562 201.863281 149.804688 C 202.4375 149.230469 203.449219 149.230469 204.027344 149.804688 C 204.324219 150.101562 204.480469 150.484375 204.480469 150.894531 L 204.480469 163.175781 L 207.546875 163.175781 L 207.546875 147.824219 C 207.546875 147.414062 207.707031 147.03125 208 146.734375 C 208.578125 146.160156 209.589844 146.160156 210.164062 146.734375 C 210.460938 147.03125 210.617188 147.414062 210.617188 147.824219 L 210.617188 163.175781 L 213.6875 163.175781 L 213.6875 150.894531 C 213.6875 150.484375 213.84375 150.101562 214.140625 149.804688 C 214.714844 149.230469 215.726562 149.230469 216.300781 149.804688 C 216.597656 150.101562 216.753906 150.484375 216.753906 150.894531 L 216.753906 163.175781 L 219.824219 163.175781 L 219.824219 153.964844 C 219.824219 153.554688 219.980469 153.171875 220.277344 152.875 C 220.851562 152.300781 221.863281 152.300781 222.441406 152.875 C 222.734375 153.171875 222.894531 153.554688 222.894531 153.964844 Z M 177.304688 163.628906 C 177.886719 163.046875 178.898438 163.046875 179.472656 163.628906 C 179.769531 163.917969 179.929688 164.300781 179.929688 164.710938 L 179.929688 172.421875 C 179.929688 176.894531 174.714844 183.105469 172.699219 185.113281 L 172.253906 185.566406 L 172.253906 189.273438 L 156.910156 189.273438 L 156.910156 185.925781 L 152.308594 173.644531 L 152.308594 153.964844 C 152.308594 153.554688 152.464844 153.171875 152.761719 152.882812 C 153.335938 152.300781 154.347656 152.300781 154.921875 152.882812 C 155.21875 153.171875 155.375 153.554688 155.375 153.964844 L 155.375 163.175781 L 158.445312 163.175781 L 158.445312 150.894531 C 158.445312 150.484375 158.601562 150.101562 158.898438 149.8125 C 159.472656 149.230469 160.484375 149.230469 161.0625 149.8125 C 161.355469 150.101562 161.515625 150.484375 161.515625 150.894531 L 161.515625 163.175781 L 164.582031 163.175781 L 164.582031 147.824219 C 164.582031 147.414062 164.738281 147.03125 165.035156 146.742188 C 165.613281 146.160156 166.625 146.160156 167.199219 146.742188 C 167.496094 147.03125 167.652344 147.414062 167.652344 147.824219 L 167.652344 163.175781 L 170.722656 163.175781 L 170.722656 150.894531 C 170.722656 150.484375 170.878906 150.101562 171.175781 149.8125 C 171.75 149.230469 172.761719 149.230469 173.335938 149.8125 C 173.632812 150.101562 173.789062 150.484375 173.789062 150.894531 L 173.789062 170.851562 L 176.859375 170.851562 L 176.859375 164.710938 C 176.859375 164.300781 177.015625 163.917969 177.304688 163.628906 Z M 234.269531 119.554688 C 233.6875 118.980469 232.917969 118.65625 232.101562 118.65625 L 189.132812 118.65625 L 189.132812 117.121094 C 189.132812 115.890625 188.65625 114.730469 187.785156 113.867188 C 186.921875 112.996094 185.761719 112.515625 184.53125 112.515625 L 175.324219 112.515625 C 174.914062 112.515625 174.53125 112.359375 174.242188 112.0625 C 173.945312 111.773438 173.789062 111.390625 173.789062 110.980469 C 173.789062 110.570312 173.945312 110.1875 174.242188 109.898438 C 174.53125 109.601562 174.914062 109.445312 175.324219 109.445312 L 193.738281 109.445312 C 194.96875 109.445312 196.128906 108.964844 197 108.09375 C 197.863281 107.230469 198.339844 106.070312 198.339844 104.839844 L 198.339844 103.304688 L 195.273438 103.304688 L 195.273438 104.839844 C 195.273438 105.25 195.117188 105.632812 194.820312 105.929688 C 194.53125 106.21875 194.148438 106.375 193.738281 106.375 L 175.324219 106.375 C 174.09375 106.375 172.933594 106.855469 172.074219 107.726562 C 171.199219 108.589844 170.722656 109.75 170.722656 110.980469 C 170.722656 112.210938 171.199219 113.371094 172.074219 114.234375 C 172.933594 115.105469 174.09375 115.585938 175.324219 115.585938 L 184.53125 115.585938 C 184.941406 115.585938 185.324219 115.742188 185.613281 116.039062 C 185.910156 116.328125 186.066406 116.710938 186.066406 117.121094 L 186.066406 118.65625 L 143.101562 118.65625 C 142.28125 118.65625 141.511719 118.980469 140.929688 119.554688 C 140.355469 120.140625 140.03125 120.90625 140.03125 121.726562 L 140.03125 155.5 C 140.03125 156.320312 140.355469 157.085938 140.929688 157.671875 C 141.503906 158.246094 142.28125 158.570312 143.101562 158.570312 L 149.238281 158.570312 L 149.238281 174.199219 L 153.839844 186.480469 L 153.839844 189.699219 C 153.613281 189.832031 153.398438 189.988281 153.207031 190.179688 C 152.628906 190.757812 152.308594 191.523438 152.308594 192.34375 L 152.308594 201.554688 L 155.375 201.554688 L 155.375 192.34375 L 173.789062 192.34375 L 173.789062 201.554688 L 176.859375 201.554688 L 176.859375 192.34375 C 176.859375 191.523438 176.535156 190.757812 175.960938 190.171875 C 175.769531 189.980469 175.550781 189.832031 175.324219 189.691406 L 175.324219 186.824219 C 177.042969 184.992188 182.996094 178.25 182.996094 172.421875 L 182.996094 164.710938 C 182.996094 163.480469 182.515625 162.320312 181.644531 161.449219 C 180.398438 160.203125 178.480469 159.871094 176.859375 160.417969 L 176.859375 158.570312 L 198.339844 158.570312 L 198.339844 160.417969 C 196.71875 159.871094 194.800781 160.203125 193.554688 161.457031 C 192.683594 162.320312 192.203125 163.480469 192.203125 164.710938 L 192.203125 172.421875 C 192.203125 178.25 198.160156 184.992188 199.875 186.824219 L 199.875 189.691406 C 199.648438 189.832031 199.429688 189.980469 199.238281 190.171875 C 198.664062 190.757812 198.339844 191.523438 198.339844 192.34375 L 198.339844 201.554688 L 201.410156 201.554688 L 201.410156 192.34375 L 219.824219 192.34375 L 219.824219 201.554688 L 222.894531 201.554688 L 222.894531 192.34375 C 222.894531 191.523438 222.570312 190.757812 221.996094 190.171875 C 221.804688 189.980469 221.585938 189.832031 221.359375 189.691406 L 221.359375 186.480469 L 225.960938 174.199219 L 225.960938 158.570312 L 232.101562 158.570312 C 232.917969 158.570312 233.695312 158.246094 234.269531 157.671875 C 234.847656 157.097656 235.167969 156.320312 235.167969 155.5 L 235.167969 121.726562 C 235.167969 120.90625 234.847656 120.128906 234.269531 119.554688 " fill-opacity="1" fill-rule="nonzero"/></g><path fill="#000000" d="M 149.238281 124.796875 L 152.308594 124.796875 L 152.308594 127.867188 L 149.238281 127.867188 L 149.238281 124.796875 " fill-opacity="1" fill-rule="nonzero"/><path fill="#000000" d="M 155.375 124.796875 L 158.445312 124.796875 L 158.445312 127.867188 L 155.375 127.867188 L 155.375 124.796875 " fill-opacity="1" fill-rule="nonzero"/><path fill="#000000" d="M 161.515625 124.796875 L 164.582031 124.796875 L 164.582031 127.867188 L 161.515625 127.867188 L 161.515625 124.796875 " fill-opacity="1" fill-rule="nonzero"/><path fill="#000000" d="M 167.652344 124.796875 L 170.722656 124.796875 L 170.722656 127.867188 L 167.652344 127.867188 L 167.652344 124.796875 " fill-opacity="1" fill-rule="nonzero"/><path fill="#000000" d="M 173.789062 124.796875 L 176.859375 124.796875 L 176.859375 127.867188 L 173.789062 127.867188 L 173.789062 124.796875 " fill-opacity="1" fill-rule="nonzero"/><path fill="#000000" d="M 179.929688 124.796875 L 182.996094 124.796875 L 182.996094 127.867188 L 179.929688 127.867188 L 179.929688 124.796875 " fill-opacity="1" fill-rule="nonzero"/><path fill="#000000" d="M 186.066406 124.796875 L 189.132812 124.796875 L 189.132812 127.867188 L 186.066406 127.867188 L 186.066406 124.796875 " fill-opacity="1" fill-rule="nonzero"/><path fill="#000000" d="M 192.203125 124.796875 L 195.273438 124.796875 L 195.273438 127.867188 L 192.203125 127.867188 L 192.203125 124.796875 " fill-opacity="1" fill-rule="nonzero"/><path fill="#000000" d="M 198.339844 124.796875 L 201.410156 124.796875 L 201.410156 127.867188 L 198.339844 127.867188 L 198.339844 124.796875 " fill-opacity="1" fill-rule="nonzero"/><path fill="#000000" d="M 204.480469 124.796875 L 207.546875 124.796875 L 207.546875 127.867188 L 204.480469 127.867188 L 204.480469 124.796875 " fill-opacity="1" fill-rule="nonzero"/><path fill="#000000" d="M 210.617188 124.796875 L 213.6875 124.796875 L 213.6875 127.867188 L 210.617188 127.867188 L 210.617188 124.796875 " fill-opacity="1" fill-rule="nonzero"/><path fill="#000000" d="M 216.753906 124.796875 L 219.824219 124.796875 L 219.824219 127.867188 L 216.753906 127.867188 L 216.753906 124.796875 " fill-opacity="1" fill-rule="nonzero"/><path fill="#000000" d="M 222.894531 124.796875 L 225.960938 124.796875 L 225.960938 127.867188 L 222.894531 127.867188 L 222.894531 124.796875 " fill-opacity="1" fill-rule="nonzero"/><path fill="#000000" d="M 146.167969 130.9375 L 149.238281 130.9375 L 149.238281 134.007812 L 146.167969 134.007812 L 146.167969 130.9375 " fill-opacity="1" fill-rule="nonzero"/><path fill="#000000" d="M 152.308594 130.9375 L 155.375 130.9375 L 155.375 134.007812 L 152.308594 134.007812 L 152.308594 130.9375 " fill-opacity="1" fill-rule="nonzero"/><path fill="#000000" d="M 158.445312 130.9375 L 161.515625 130.9375 L 161.515625 134.007812 L 158.445312 134.007812 L 158.445312 130.9375 " fill-opacity="1" fill-rule="nonzero"/><path fill="#000000" d="M 164.582031 130.9375 L 167.652344 130.9375 L 167.652344 134.007812 L 164.582031 134.007812 L 164.582031 130.9375 " fill-opacity="1" fill-rule="nonzero"/><path fill="#000000" d="M 170.722656 130.9375 L 173.789062 130.9375 L 173.789062 134.007812 L 170.722656 134.007812 L 170.722656 130.9375 " fill-opacity="1" fill-rule="nonzero"/><path fill="#000000" d="M 176.859375 130.9375 L 179.929688 130.9375 L 179.929688 134.007812 L 176.859375 134.007812 L 176.859375 130.9375 " fill-opacity="1" fill-rule="nonzero"/><path fill="#000000" d="M 182.996094 130.9375 L 186.066406 130.9375 L 186.066406 134.007812 L 182.996094 134.007812 L 182.996094 130.9375 " fill-opacity="1" fill-rule="nonzero"/><path fill="#000000" d="M 189.132812 130.9375 L 192.203125 130.9375 L 192.203125 134.007812 L 189.132812 134.007812 L 189.132812 130.9375 " fill-opacity="1" fill-rule="nonzero"/><path fill="#000000" d="M 195.273438 130.9375 L 198.339844 130.9375 L 198.339844 134.007812 L 195.273438 134.007812 L 195.273438 130.9375 " fill-opacity="1" fill-rule="nonzero"/><path fill="#000000" d="M 201.410156 130.9375 L 204.480469 130.9375 L 204.480469 134.007812 L 201.410156 134.007812 L 201.410156 130.9375 " fill-opacity="1" fill-rule="nonzero"/><path fill="#000000" d="M 207.546875 130.9375 L 210.617188 130.9375 L 210.617188 134.007812 L 207.546875 134.007812 L 207.546875 130.9375 " fill-opacity="1" fill-rule="nonzero"/><path fill="#000000" d="M 213.6875 130.9375 L 216.753906 130.9375 L 216.753906 134.007812 L 213.6875 134.007812 L 213.6875 130.9375 " fill-opacity="1" fill-rule="nonzero"/><path fill="#000000" d="M 219.824219 130.9375 L 222.894531 130.9375 L 222.894531 134.007812 L 219.824219 134.007812 L 219.824219 130.9375 " fill-opacity="1" fill-rule="nonzero"/><path fill="#000000" d="M 225.960938 130.9375 L 229.03125 130.9375 L 229.03125 134.007812 L 225.960938 134.007812 L 225.960938 130.9375 " fill-opacity="1" fill-rule="nonzero"/><path fill="#000000" d="M 149.238281 137.078125 L 152.308594 137.078125 L 152.308594 140.148438 L 149.238281 140.148438 L 149.238281 137.078125 " fill-opacity="1" fill-rule="nonzero"/><path fill="#000000" d="M 155.375 137.078125 L 158.445312 137.078125 L 158.445312 140.148438 L 155.375 140.148438 L 155.375 137.078125 " fill-opacity="1" fill-rule="nonzero"/><path fill="#000000" d="M 161.515625 137.078125 L 164.582031 137.078125 L 164.582031 140.148438 L 161.515625 140.148438 L 161.515625 137.078125 " fill-opacity="1" fill-rule="nonzero"/><path fill="#000000" d="M 167.652344 137.078125 L 170.722656 137.078125 L 170.722656 140.148438 L 167.652344 140.148438 L 167.652344 137.078125 " fill-opacity="1" fill-rule="nonzero"/><path fill="#000000" d="M 173.789062 137.078125 L 176.859375 137.078125 L 176.859375 140.148438 L 173.789062 140.148438 L 173.789062 137.078125 " fill-opacity="1" fill-rule="nonzero"/><path fill="#000000" d="M 179.929688 137.078125 L 182.996094 137.078125 L 182.996094 140.148438 L 179.929688 140.148438 L 179.929688 137.078125 " fill-opacity="1" fill-rule="nonzero"/><path fill="#000000" d="M 186.066406 137.078125 L 189.132812 137.078125 L 189.132812 140.148438 L 186.066406 140.148438 L 186.066406 137.078125 " fill-opacity="1" fill-rule="nonzero"/><path fill="#000000" d="M 192.203125 137.078125 L 195.273438 137.078125 L 195.273438 140.148438 L 192.203125 140.148438 L 192.203125 137.078125 " fill-opacity="1" fill-rule="nonzero"/><path fill="#000000" d="M 198.339844 137.078125 L 201.410156 137.078125 L 201.410156 140.148438 L 198.339844 140.148438 L 198.339844 137.078125 " fill-opacity="1" fill-rule="nonzero"/><path fill="#000000" d="M 204.480469 137.078125 L 207.546875 137.078125 L 207.546875 140.148438 L 204.480469 140.148438 L 204.480469 137.078125 " fill-opacity="1" fill-rule="nonzero"/><path fill="#000000" d="M 210.617188 137.078125 L 213.6875 137.078125 L 213.6875 140.148438 L 210.617188 140.148438 L 210.617188 137.078125 " fill-opacity="1" fill-rule="nonzero"/><path fill="#000000" d="M 216.753906 137.078125 L 219.824219 137.078125 L 219.824219 140.148438 L 216.753906 140.148438 L 216.753906 137.078125 " fill-opacity="1" fill-rule="nonzero"/><path fill="#000000" d="M 222.894531 137.078125 L 225.960938 137.078125 L 225.960938 140.148438 L 222.894531 140.148438 L 222.894531 137.078125 " fill-opacity="1" fill-rule="nonzero"/><path fill="#000000" d="M 146.167969 143.21875 L 149.238281 143.21875 L 149.238281 146.289062 L 146.167969 146.289062 L 146.167969 143.21875 " fill-opacity="1" fill-rule="nonzero"/><path fill="#000000" d="M 152.308594 143.21875 L 155.375 143.21875 L 155.375 146.289062 L 152.308594 146.289062 L 152.308594 143.21875 " fill-opacity="1" fill-rule="nonzero"/><path fill="#000000" d="M 176.859375 143.21875 L 179.929688 143.21875 L 179.929688 146.289062 L 176.859375 146.289062 L 176.859375 143.21875 " fill-opacity="1" fill-rule="nonzero"/><path fill="#000000" d="M 182.996094 143.21875 L 186.066406 143.21875 L 186.066406 146.289062 L 182.996094 146.289062 L 182.996094 143.21875 " fill-opacity="1" fill-rule="nonzero"/><path fill="#000000" d="M 189.132812 143.21875 L 192.203125 143.21875 L 192.203125 146.289062 L 189.132812 146.289062 L 189.132812 143.21875 " fill-opacity="1" fill-rule="nonzero"/><path fill="#000000" d="M 195.273438 143.21875 L 198.339844 143.21875 L 198.339844 146.289062 L 195.273438 146.289062 L 195.273438 143.21875 " fill-opacity="1" fill-rule="nonzero"/><path fill="#000000" d="M 219.824219 143.21875 L 222.894531 143.21875 L 222.894531 146.289062 L 219.824219 146.289062 L 219.824219 143.21875 " fill-opacity="1" fill-rule="nonzero"/><path fill="#000000" d="M 225.960938 143.21875 L 229.03125 143.21875 L 229.03125 146.289062 L 225.960938 146.289062 L 225.960938 143.21875 " fill-opacity="1" fill-rule="nonzero"/><path fill="#000000" d="M 179.929688 149.359375 L 195.273438 149.359375 L 195.273438 152.429688 L 179.929688 152.429688 L 179.929688 149.359375 " fill-opacity="1" fill-rule="nonzero"/></svg>