<svg xmlns="http://www.w3.org/2000/svg" xmlns:xlink="http://www.w3.org/1999/xlink" width="90" zoomAndPan="magnify" viewBox="0 0 67.5 67.499996" height="90" preserveAspectRatio="xMidYMid meet" version="1.0"><defs><g/><clipPath id="id1"><path d="M 24.289062 22.703125 L 43 22.703125 L 43 35.453125 L 24.289062 35.453125 Z M 24.289062 22.703125 " clip-rule="nonzero"/></clipPath></defs><g fill="#ffffff" fill-opacity="1"><g transform="translate(22.793906, 40.880726)"><g><path d="M 0.21875 -0.171875 L 0.734375 -0.171875 L 0.734375 -4.4375 L 0.21875 -4.4375 L 0.21875 -4.609375 L 3.59375 -4.609375 L 3.59375 -3.6875 L 3.421875 -3.6875 L 3.421875 -4.4375 L 0.90625 -4.4375 L 0.90625 -2.4375 L 2.953125 -2.4375 L 2.953125 -2.265625 L 0.90625 -2.265625 L 0.90625 -0.171875 L 1.421875 -0.171875 L 1.421875 0 L 0.21875 0 Z M 0.21875 -0.171875 "/></g></g><g transform="translate(26.736327, 40.880726)"><g><path d="M 0.9375 -3.421875 L 0.96875 -2.828125 L 0.96875 -2.71875 C 1.0625 -2.957031 1.203125 -3.144531 1.390625 -3.28125 C 1.578125 -3.414062 1.8125 -3.484375 2.09375 -3.484375 C 2.132812 -3.484375 2.175781 -3.476562 2.21875 -3.46875 C 2.257812 -3.46875 2.296875 -3.460938 2.328125 -3.453125 L 2.3125 -3.296875 L 2.09375 -3.328125 C 1.78125 -3.328125 1.523438 -3.226562 1.328125 -3.03125 C 1.140625 -2.832031 1.019531 -2.570312 0.96875 -2.25 L 0.96875 -0.171875 L 1.484375 -0.171875 L 1.484375 0 L 0.28125 0 L 0.28125 -0.171875 L 0.796875 -0.171875 L 0.796875 -3.25 L 0.28125 -3.25 L 0.28125 -3.421875 Z M 0.9375 -3.421875 "/></g></g><g transform="translate(29.277069, 40.880726)"><g><path d="M 2.796875 0 C 2.773438 -0.144531 2.757812 -0.253906 2.75 -0.328125 C 2.738281 -0.410156 2.734375 -0.492188 2.734375 -0.578125 L 2.734375 -0.625 C 2.597656 -0.425781 2.410156 -0.257812 2.171875 -0.125 C 1.941406 0 1.671875 0.0625 1.359375 0.0625 C 1.035156 0.0625 0.78125 -0.0195312 0.59375 -0.1875 C 0.414062 -0.363281 0.328125 -0.59375 0.328125 -0.875 C 0.328125 -1.175781 0.46875 -1.421875 0.75 -1.609375 C 1.03125 -1.804688 1.40625 -1.90625 1.875 -1.90625 L 2.734375 -1.90625 L 2.734375 -2.40625 C 2.734375 -2.695312 2.640625 -2.921875 2.453125 -3.078125 C 2.273438 -3.234375 2.019531 -3.3125 1.6875 -3.3125 C 1.46875 -3.3125 1.265625 -3.28125 1.078125 -3.21875 C 0.890625 -3.164062 0.726562 -3.082031 0.59375 -2.96875 L 0.59375 -2.421875 L 0.421875 -2.421875 L 0.421875 -3.078125 C 0.585938 -3.203125 0.78125 -3.300781 1 -3.375 C 1.21875 -3.445312 1.445312 -3.484375 1.6875 -3.484375 C 2.050781 -3.484375 2.34375 -3.390625 2.5625 -3.203125 C 2.789062 -3.023438 2.90625 -2.757812 2.90625 -2.40625 L 2.90625 -0.6875 C 2.90625 -0.601562 2.90625 -0.515625 2.90625 -0.421875 C 2.914062 -0.335938 2.929688 -0.253906 2.953125 -0.171875 L 3.359375 -0.171875 L 3.359375 0 Z M 1.359375 -0.09375 C 1.679688 -0.09375 1.957031 -0.164062 2.1875 -0.3125 C 2.425781 -0.457031 2.609375 -0.660156 2.734375 -0.921875 L 2.734375 -1.734375 L 1.890625 -1.734375 C 1.472656 -1.734375 1.132812 -1.648438 0.875 -1.484375 C 0.625 -1.328125 0.5 -1.117188 0.5 -0.859375 C 0.5 -0.640625 0.578125 -0.457031 0.734375 -0.3125 C 0.890625 -0.164062 1.097656 -0.09375 1.359375 -0.09375 Z M 1.359375 -0.09375 "/></g></g><g transform="translate(32.858787, 40.880726)"><g><path d="M 0.28125 -0.171875 L 0.796875 -0.171875 L 0.796875 -3.25 L 0.28125 -3.25 L 0.28125 -3.421875 L 0.9375 -3.421875 L 0.96875 -2.71875 C 1.070312 -2.96875 1.222656 -3.15625 1.421875 -3.28125 C 1.617188 -3.414062 1.863281 -3.484375 2.15625 -3.484375 C 2.53125 -3.484375 2.8125 -3.363281 3 -3.125 C 3.1875 -2.894531 3.28125 -2.523438 3.28125 -2.015625 L 3.28125 -0.171875 L 3.796875 -0.171875 L 3.796875 0 L 2.59375 0 L 2.59375 -0.171875 L 3.109375 -0.171875 L 3.109375 -2.015625 C 3.109375 -2.492188 3.019531 -2.828125 2.84375 -3.015625 C 2.675781 -3.210938 2.445312 -3.3125 2.15625 -3.3125 C 1.789062 -3.3125 1.507812 -3.203125 1.3125 -2.984375 C 1.125 -2.765625 1.007812 -2.484375 0.96875 -2.140625 L 0.96875 -0.171875 L 1.484375 -0.171875 L 1.484375 0 L 0.28125 0 Z M 0.28125 -0.171875 "/></g></g><g transform="translate(37.035349, 40.880726)"><g><path d="M 0.734375 0 L 0.453125 0 L 0.453125 -0.40625 L 0.734375 -0.40625 Z M 0.734375 0 "/></g></g><g transform="translate(38.440193, 40.880726)"><g><path d="M 0.28125 -0.171875 L 0.796875 -0.171875 L 0.796875 -3.25 L 0.28125 -3.25 L 0.28125 -3.421875 L 0.953125 -3.421875 L 0.96875 -2.71875 C 1.070312 -2.957031 1.21875 -3.144531 1.40625 -3.28125 C 1.601562 -3.414062 1.84375 -3.484375 2.125 -3.484375 C 2.414062 -3.484375 2.65625 -3.40625 2.84375 -3.25 C 3.03125 -3.101562 3.15625 -2.875 3.21875 -2.5625 C 3.3125 -2.851562 3.460938 -3.082031 3.671875 -3.25 C 3.878906 -3.414062 4.132812 -3.5 4.4375 -3.5 C 4.820312 -3.5 5.109375 -3.375 5.296875 -3.125 C 5.492188 -2.875 5.59375 -2.484375 5.59375 -1.953125 L 5.59375 -0.171875 L 6.109375 -0.171875 L 6.109375 0 L 4.90625 0 L 4.90625 -0.171875 L 5.421875 -0.171875 L 5.421875 -1.96875 C 5.421875 -2.457031 5.332031 -2.804688 5.15625 -3.015625 C 4.976562 -3.222656 4.742188 -3.328125 4.453125 -3.328125 C 4.085938 -3.328125 3.8125 -3.21875 3.625 -3 C 3.4375 -2.78125 3.320312 -2.492188 3.28125 -2.140625 C 3.28125 -2.097656 3.28125 -2.0625 3.28125 -2.03125 C 3.28125 -2 3.28125 -1.972656 3.28125 -1.953125 L 3.28125 -0.171875 L 3.796875 -0.171875 L 3.796875 0 L 2.59375 0 L 2.59375 -0.171875 L 3.109375 -0.171875 L 3.109375 -1.953125 C 3.109375 -2.453125 3.019531 -2.800781 2.84375 -3 C 2.664062 -3.207031 2.425781 -3.3125 2.125 -3.3125 C 1.769531 -3.3125 1.5 -3.207031 1.3125 -3 C 1.132812 -2.789062 1.019531 -2.523438 0.96875 -2.203125 L 0.96875 -0.171875 L 1.484375 -0.171875 L 1.484375 0 L 0.28125 0 Z M 0.28125 -0.171875 "/></g></g></g><g clip-path="url(#id1)"><path fill="#ffffff" d="M 40.667969 34.878906 L 26.65625 34.878906 C 25.824219 34.878906 25.132812 34.273438 24.996094 33.480469 L 42.324219 33.480469 C 42.191406 34.273438 41.5 34.878906 40.667969 34.878906 Z M 26.058594 23.621094 C 26.058594 23.417969 26.21875 23.257812 26.421875 23.257812 L 40.902344 23.257812 C 41.105469 23.257812 41.265625 23.417969 41.265625 23.621094 L 41.265625 32.917969 L 26.058594 32.917969 Z M 42.628906 32.921875 L 41.828125 32.921875 L 41.828125 23.621094 C 41.828125 23.113281 41.414062 22.699219 40.902344 22.699219 L 26.421875 22.699219 C 25.914062 22.699219 25.5 23.113281 25.5 23.621094 L 25.5 32.917969 L 24.695312 32.917969 C 24.539062 32.921875 24.414062 33.046875 24.414062 33.203125 C 24.414062 34.433594 25.421875 35.441406 26.65625 35.441406 L 40.667969 35.441406 C 41.902344 35.441406 42.910156 34.433594 42.910156 33.203125 C 42.910156 33.046875 42.789062 32.921875 42.628906 32.921875 " fill-opacity="1" fill-rule="nonzero"/></g><path fill="#ffffff" d="M 39.65625 31.671875 L 27.667969 31.671875 L 27.667969 24.523438 L 39.65625 24.523438 Z M 39.9375 23.964844 L 27.390625 23.964844 C 27.234375 23.964844 27.109375 24.085938 27.109375 24.242188 L 27.109375 31.953125 C 27.109375 32.109375 27.234375 32.234375 27.390625 32.234375 L 39.933594 32.234375 C 40.089844 32.234375 40.214844 32.109375 40.214844 31.953125 L 40.214844 24.242188 C 40.21875 24.085938 40.089844 23.964844 39.9375 23.964844 " fill-opacity="1" fill-rule="nonzero"/><path fill="#ffffff" d="M 32.875 30.316406 C 32.90625 30.328125 32.933594 30.335938 32.964844 30.335938 C 33.082031 30.335938 33.1875 30.261719 33.230469 30.148438 L 34.605469 26.230469 C 34.660156 26.085938 34.582031 25.925781 34.4375 25.875 C 34.289062 25.824219 34.128906 25.902344 34.078125 26.046875 L 32.699219 29.960938 C 32.652344 30.105469 32.730469 30.265625 32.875 30.316406 Z M 37.253906 28.15625 L 35.378906 29.636719 C 35.253906 29.734375 35.234375 29.910156 35.332031 30.03125 C 35.386719 30.097656 35.46875 30.136719 35.550781 30.136719 C 35.609375 30.136719 35.671875 30.117188 35.722656 30.074219 L 37.875 28.375 C 37.941406 28.324219 37.980469 28.246094 37.980469 28.160156 C 37.980469 28.078125 37.941406 27.996094 37.875 27.941406 L 35.636719 26.121094 C 35.515625 26.023438 35.339844 26.039062 35.246094 26.160156 C 35.144531 26.28125 35.164062 26.457031 35.285156 26.550781 Z M 31.601562 30.074219 C 31.65625 30.117188 31.714844 30.136719 31.777344 30.136719 C 31.859375 30.136719 31.941406 30.097656 31.996094 30.03125 C 32.089844 29.910156 32.070312 29.734375 31.949219 29.636719 L 30.074219 28.15625 L 32.042969 26.550781 C 32.160156 26.457031 32.179688 26.277344 32.082031 26.160156 C 31.984375 26.039062 31.808594 26.023438 31.6875 26.121094 L 29.449219 27.941406 C 29.382812 27.996094 29.34375 28.074219 29.34375 28.160156 C 29.34375 28.246094 29.386719 28.324219 29.453125 28.375 L 31.601562 30.074219 " fill-opacity="1" fill-rule="nonzero"/></svg>