<svg xmlns="http://www.w3.org/2000/svg" xmlns:xlink="http://www.w3.org/1999/xlink" width="90" zoomAndPan="magnify" viewBox="0 0 67.5 67.499996" height="90" preserveAspectRatio="xMidYMid meet" version="1.0"><defs><g/><clipPath id="id1"><path d="M 11.492188 31.691406 L 58.199219 31.691406 L 58.199219 35.742188 L 11.492188 35.742188 Z M 11.492188 31.691406 " clip-rule="nonzero"/></clipPath></defs><g fill="#ffffff" fill-opacity="1"><g transform="translate(15.962577, 41.816505)"><g><path d="M 15.1875 -18.3125 C 15.0625 -16.695312 15 -15.25 15 -13.96875 C 15 -13.175781 15.023438 -12.554688 15.078125 -12.109375 L 14.484375 -12.109375 C 14.078125 -14.109375 13.445312 -15.539062 12.59375 -16.40625 C 11.738281 -17.28125 10.785156 -17.71875 9.734375 -17.71875 L 9.390625 -17.71875 C 8.921875 -17.71875 8.578125 -17.675781 8.359375 -17.59375 C 8.148438 -17.519531 8.003906 -17.375 7.921875 -17.15625 C 7.847656 -16.945312 7.8125 -16.59375 7.8125 -16.09375 L 7.8125 -9.46875 L 8.078125 -9.46875 C 8.972656 -9.46875 9.738281 -9.820312 10.375 -10.53125 C 11.007812 -11.238281 11.414062 -12.023438 11.59375 -12.890625 L 12.1875 -12.890625 C 12.132812 -12.160156 12.109375 -11.347656 12.109375 -10.453125 L 12.109375 -9.21875 C 12.109375 -8.332031 12.160156 -7.101562 12.265625 -5.53125 L 11.671875 -5.53125 C 11.515625 -6.519531 11.113281 -7.335938 10.46875 -7.984375 C 9.820312 -8.628906 9.023438 -8.953125 8.078125 -8.953125 L 7.8125 -8.953125 L 7.8125 -3 C 7.8125 -2.28125 7.882812 -1.753906 8.03125 -1.421875 C 8.175781 -1.097656 8.441406 -0.878906 8.828125 -0.765625 C 9.222656 -0.648438 9.84375 -0.59375 10.6875 -0.59375 L 10.6875 0 C 8.351562 -0.0507812 6.578125 -0.078125 5.359375 -0.078125 C 4.546875 -0.078125 3.414062 -0.0625 1.96875 -0.03125 L 0.71875 0 L 0.71875 -0.515625 C 1.269531 -0.546875 1.671875 -0.613281 1.921875 -0.71875 C 2.171875 -0.820312 2.335938 -1.019531 2.421875 -1.3125 C 2.515625 -1.613281 2.5625 -2.09375 2.5625 -2.75 L 2.5625 -15.578125 C 2.5625 -16.234375 2.515625 -16.707031 2.421875 -17 C 2.328125 -17.289062 2.15625 -17.488281 1.90625 -17.59375 C 1.664062 -17.695312 1.269531 -17.765625 0.71875 -17.796875 L 0.71875 -18.3125 C 2.71875 -18.257812 5.738281 -18.234375 9.78125 -18.234375 C 12.3125 -18.234375 14.113281 -18.257812 15.1875 -18.3125 Z M 15.1875 -18.3125 "/></g></g></g><g fill="#ffffff" fill-opacity="1"><g transform="translate(33.864922, 41.816505)"><g><path d="M 24.25 -17.796875 C 23.695312 -17.765625 23.296875 -17.695312 23.046875 -17.59375 C 22.796875 -17.488281 22.625 -17.289062 22.53125 -17 C 22.445312 -16.707031 22.40625 -16.234375 22.40625 -15.578125 L 22.40625 -2.75 C 22.40625 -2.09375 22.453125 -1.613281 22.546875 -1.3125 C 22.640625 -1.019531 22.804688 -0.820312 23.046875 -0.71875 C 23.296875 -0.613281 23.695312 -0.546875 24.25 -0.515625 L 24.25 0 C 23.195312 -0.0507812 21.671875 -0.078125 19.671875 -0.078125 C 17.578125 -0.078125 16.039062 -0.0507812 15.0625 0 L 15.0625 -0.515625 C 15.675781 -0.546875 16.125 -0.613281 16.40625 -0.71875 C 16.695312 -0.820312 16.894531 -1.019531 17 -1.3125 C 17.101562 -1.613281 17.15625 -2.09375 17.15625 -2.75 L 17.15625 -15.96875 L 10.921875 -0.03125 L 10.5 -0.03125 L 3.203125 -16.640625 L 3.203125 -5.078125 C 3.203125 -3.796875 3.253906 -2.875 3.359375 -2.3125 C 3.460938 -1.75 3.691406 -1.335938 4.046875 -1.078125 C 4.398438 -0.828125 4.992188 -0.640625 5.828125 -0.515625 L 5.828125 0 C 5.117188 -0.0507812 4.148438 -0.078125 2.921875 -0.078125 C 2.003906 -0.078125 1.289062 -0.0507812 0.78125 0 L 0.78125 -0.515625 C 1.3125 -0.640625 1.707031 -0.828125 1.96875 -1.078125 C 2.226562 -1.328125 2.398438 -1.707031 2.484375 -2.21875 C 2.566406 -2.738281 2.609375 -3.515625 2.609375 -4.546875 L 2.609375 -15.578125 C 2.609375 -16.234375 2.5625 -16.707031 2.46875 -17 C 2.375 -17.289062 2.207031 -17.488281 1.96875 -17.59375 C 1.726562 -17.695312 1.332031 -17.765625 0.78125 -17.796875 L 0.78125 -18.3125 C 1.289062 -18.257812 2.003906 -18.234375 2.921875 -18.234375 C 4.992188 -18.234375 6.78125 -18.257812 8.28125 -18.3125 L 13.171875 -7.328125 L 17.40625 -18.234375 L 19.671875 -18.234375 C 21.671875 -18.234375 23.195312 -18.257812 24.25 -18.3125 Z M 24.25 -17.796875 "/></g></g></g><path stroke-linecap="butt" transform="matrix(0.000000000000000212, 0.748154, -0.75, 0.000000000000000212, 33.489514, 20.471135)" fill="none" stroke-linejoin="miter" d="M 0.00203334 0.00164321 L 38.095788 0.00164321 " stroke="#ffffff" stroke-width="1" stroke-opacity="1" stroke-miterlimit="4"/><g clip-path="url(#id1)"><path fill="#e0e1e6" d="M 11.5 31.691406 L 58.195312 31.691406 L 58.195312 35.742188 L 11.5 35.742188 L 11.5 31.691406 " fill-opacity="1" fill-rule="nonzero"/></g><g fill="#ffffff" fill-opacity="1"><g transform="translate(26.39428, 34.307405)"><g><path d="M 1.953125 -1.171875 L 1.5 0 L 1.359375 0 L 0.984375 -0.96875 L 0.609375 0 L 0.453125 0 L 0.015625 -1.171875 L 0.171875 -1.171875 L 0.53125 -0.171875 L 0.921875 -1.171875 L 1.046875 -1.171875 L 1.421875 -0.171875 L 1.796875 -1.171875 Z M 1.953125 -1.171875 "/></g></g></g><g fill="#ffffff" fill-opacity="1"><g transform="translate(28.628906, 34.307405)"><g><path d="M 1.25 -0.53125 L 0.265625 -0.53125 C 0.273438 -0.414062 0.320312 -0.316406 0.40625 -0.234375 C 0.488281 -0.160156 0.59375 -0.125 0.71875 -0.125 C 0.789062 -0.125 0.859375 -0.132812 0.921875 -0.15625 C 0.984375 -0.1875 1.035156 -0.226562 1.078125 -0.28125 L 1.171875 -0.1875 C 1.117188 -0.125 1.050781 -0.0703125 0.96875 -0.03125 C 0.894531 0 0.8125 0.015625 0.71875 0.015625 C 0.59375 0.015625 0.484375 -0.0078125 0.390625 -0.0625 C 0.304688 -0.113281 0.238281 -0.1875 0.1875 -0.28125 C 0.132812 -0.375 0.109375 -0.476562 0.109375 -0.59375 C 0.109375 -0.707031 0.128906 -0.804688 0.171875 -0.890625 C 0.222656 -0.984375 0.289062 -1.054688 0.375 -1.109375 C 0.46875 -1.160156 0.566406 -1.1875 0.671875 -1.1875 C 0.785156 -1.1875 0.882812 -1.160156 0.96875 -1.109375 C 1.050781 -1.054688 1.117188 -0.984375 1.171875 -0.890625 C 1.222656 -0.804688 1.25 -0.707031 1.25 -0.59375 Z M 0.671875 -1.046875 C 0.554688 -1.046875 0.460938 -1.007812 0.390625 -0.9375 C 0.316406 -0.863281 0.273438 -0.769531 0.265625 -0.65625 L 1.09375 -0.65625 C 1.082031 -0.769531 1.035156 -0.863281 0.953125 -0.9375 C 0.878906 -1.007812 0.785156 -1.046875 0.671875 -1.046875 Z M 0.671875 -1.046875 "/></g></g></g><g fill="#ffffff" fill-opacity="1"><g transform="translate(30.248393, 34.307405)"><g><path d="M 0.828125 -1.1875 C 0.929688 -1.1875 1.03125 -1.160156 1.125 -1.109375 C 1.21875 -1.054688 1.285156 -0.984375 1.328125 -0.890625 C 1.378906 -0.804688 1.40625 -0.707031 1.40625 -0.59375 C 1.40625 -0.46875 1.378906 -0.359375 1.328125 -0.265625 C 1.285156 -0.179688 1.21875 -0.113281 1.125 -0.0625 C 1.03125 -0.0078125 0.929688 0.015625 0.828125 0.015625 C 0.722656 0.015625 0.628906 -0.00390625 0.546875 -0.046875 C 0.472656 -0.0859375 0.414062 -0.148438 0.375 -0.234375 L 0.375 0 L 0.21875 0 L 0.21875 -1.65625 L 0.375 -1.65625 L 0.375 -0.953125 C 0.425781 -1.023438 0.488281 -1.082031 0.5625 -1.125 C 0.644531 -1.164062 0.734375 -1.1875 0.828125 -1.1875 Z M 0.8125 -0.125 C 0.894531 -0.125 0.96875 -0.144531 1.03125 -0.1875 C 1.101562 -0.226562 1.15625 -0.28125 1.1875 -0.34375 C 1.226562 -0.414062 1.25 -0.5 1.25 -0.59375 C 1.25 -0.675781 1.226562 -0.753906 1.1875 -0.828125 C 1.15625 -0.898438 1.101562 -0.953125 1.03125 -0.984375 C 0.96875 -1.023438 0.894531 -1.046875 0.8125 -1.046875 C 0.726562 -1.046875 0.648438 -1.023438 0.578125 -0.984375 C 0.515625 -0.953125 0.460938 -0.898438 0.421875 -0.828125 C 0.390625 -0.753906 0.375 -0.675781 0.375 -0.59375 C 0.375 -0.5 0.390625 -0.414062 0.421875 -0.34375 C 0.460938 -0.28125 0.515625 -0.226562 0.578125 -0.1875 C 0.648438 -0.144531 0.726562 -0.125 0.8125 -0.125 Z M 0.8125 -0.125 "/></g></g></g><g fill="#ffffff" fill-opacity="1"><g transform="translate(32.03341, 34.307405)"><g/></g></g><g fill="#ffffff" fill-opacity="1"><g transform="translate(32.887891, 34.307405)"><g><path d="M 0.25 -1.5625 L 0.890625 -1.5625 C 1.054688 -1.5625 1.203125 -1.523438 1.328125 -1.453125 C 1.453125 -1.390625 1.550781 -1.300781 1.625 -1.1875 C 1.695312 -1.070312 1.734375 -0.9375 1.734375 -0.78125 C 1.734375 -0.625 1.695312 -0.488281 1.625 -0.375 C 1.550781 -0.257812 1.453125 -0.164062 1.328125 -0.09375 C 1.203125 -0.03125 1.054688 0 0.890625 0 L 0.25 0 Z M 0.875 -0.140625 C 1.019531 -0.140625 1.140625 -0.164062 1.234375 -0.21875 C 1.335938 -0.28125 1.414062 -0.359375 1.46875 -0.453125 C 1.53125 -0.546875 1.5625 -0.65625 1.5625 -0.78125 C 1.5625 -0.90625 1.53125 -1.015625 1.46875 -1.109375 C 1.414062 -1.210938 1.335938 -1.289062 1.234375 -1.34375 C 1.140625 -1.394531 1.019531 -1.421875 0.875 -1.421875 L 0.421875 -1.421875 L 0.421875 -0.140625 Z M 0.875 -0.140625 "/></g></g></g><g fill="#ffffff" fill-opacity="1"><g transform="translate(35.003962, 34.307405)"><g><path d="M 1.25 -0.53125 L 0.265625 -0.53125 C 0.273438 -0.414062 0.320312 -0.316406 0.40625 -0.234375 C 0.488281 -0.160156 0.59375 -0.125 0.71875 -0.125 C 0.789062 -0.125 0.859375 -0.132812 0.921875 -0.15625 C 0.984375 -0.1875 1.035156 -0.226562 1.078125 -0.28125 L 1.171875 -0.1875 C 1.117188 -0.125 1.050781 -0.0703125 0.96875 -0.03125 C 0.894531 0 0.8125 0.015625 0.71875 0.015625 C 0.59375 0.015625 0.484375 -0.0078125 0.390625 -0.0625 C 0.304688 -0.113281 0.238281 -0.1875 0.1875 -0.28125 C 0.132812 -0.375 0.109375 -0.476562 0.109375 -0.59375 C 0.109375 -0.707031 0.128906 -0.804688 0.171875 -0.890625 C 0.222656 -0.984375 0.289062 -1.054688 0.375 -1.109375 C 0.46875 -1.160156 0.566406 -1.1875 0.671875 -1.1875 C 0.785156 -1.1875 0.882812 -1.160156 0.96875 -1.109375 C 1.050781 -1.054688 1.117188 -0.984375 1.171875 -0.890625 C 1.222656 -0.804688 1.25 -0.707031 1.25 -0.59375 Z M 0.671875 -1.046875 C 0.554688 -1.046875 0.460938 -1.007812 0.390625 -0.9375 C 0.316406 -0.863281 0.273438 -0.769531 0.265625 -0.65625 L 1.09375 -0.65625 C 1.082031 -0.769531 1.035156 -0.863281 0.953125 -0.9375 C 0.878906 -1.007812 0.785156 -1.046875 0.671875 -1.046875 Z M 0.671875 -1.046875 "/></g></g></g><g fill="#ffffff" fill-opacity="1"><g transform="translate(36.62345, 34.307405)"><g><path d="M 1.203125 -1.171875 L 0.6875 0 L 0.515625 0 L 0 -1.171875 L 0.171875 -1.171875 L 0.609375 -0.171875 L 1.046875 -1.171875 Z M 1.203125 -1.171875 "/></g></g></g><g fill="#ffffff" fill-opacity="1"><g transform="translate(38.104251, 34.307405)"><g><path d="M 1.25 -0.53125 L 0.265625 -0.53125 C 0.273438 -0.414062 0.320312 -0.316406 0.40625 -0.234375 C 0.488281 -0.160156 0.59375 -0.125 0.71875 -0.125 C 0.789062 -0.125 0.859375 -0.132812 0.921875 -0.15625 C 0.984375 -0.1875 1.035156 -0.226562 1.078125 -0.28125 L 1.171875 -0.1875 C 1.117188 -0.125 1.050781 -0.0703125 0.96875 -0.03125 C 0.894531 0 0.8125 0.015625 0.71875 0.015625 C 0.59375 0.015625 0.484375 -0.0078125 0.390625 -0.0625 C 0.304688 -0.113281 0.238281 -0.1875 0.1875 -0.28125 C 0.132812 -0.375 0.109375 -0.476562 0.109375 -0.59375 C 0.109375 -0.707031 0.128906 -0.804688 0.171875 -0.890625 C 0.222656 -0.984375 0.289062 -1.054688 0.375 -1.109375 C 0.46875 -1.160156 0.566406 -1.1875 0.671875 -1.1875 C 0.785156 -1.1875 0.882812 -1.160156 0.96875 -1.109375 C 1.050781 -1.054688 1.117188 -0.984375 1.171875 -0.890625 C 1.222656 -0.804688 1.25 -0.707031 1.25 -0.59375 Z M 0.671875 -1.046875 C 0.554688 -1.046875 0.460938 -1.007812 0.390625 -0.9375 C 0.316406 -0.863281 0.273438 -0.769531 0.265625 -0.65625 L 1.09375 -0.65625 C 1.082031 -0.769531 1.035156 -0.863281 0.953125 -0.9375 C 0.878906 -1.007812 0.785156 -1.046875 0.671875 -1.046875 Z M 0.671875 -1.046875 "/></g></g></g><g fill="#ffffff" fill-opacity="1"><g transform="translate(39.723738, 34.307405)"><g><path d="M 0.21875 -1.65625 L 0.375 -1.65625 L 0.375 0 L 0.21875 0 Z M 0.21875 -1.65625 "/></g></g></g><g fill="#ffffff" fill-opacity="1"><g transform="translate(40.593877, 34.307405)"><g><path d="M 0.703125 0.015625 C 0.585938 0.015625 0.484375 -0.0078125 0.390625 -0.0625 C 0.304688 -0.113281 0.238281 -0.1875 0.1875 -0.28125 C 0.132812 -0.375 0.109375 -0.476562 0.109375 -0.59375 C 0.109375 -0.707031 0.132812 -0.804688 0.1875 -0.890625 C 0.238281 -0.984375 0.304688 -1.054688 0.390625 -1.109375 C 0.484375 -1.160156 0.585938 -1.1875 0.703125 -1.1875 C 0.816406 -1.1875 0.914062 -1.160156 1 -1.109375 C 1.09375 -1.054688 1.164062 -0.984375 1.21875 -0.890625 C 1.269531 -0.804688 1.296875 -0.707031 1.296875 -0.59375 C 1.296875 -0.476562 1.269531 -0.375 1.21875 -0.28125 C 1.164062 -0.1875 1.09375 -0.113281 1 -0.0625 C 0.914062 -0.0078125 0.816406 0.015625 0.703125 0.015625 Z M 0.703125 -0.125 C 0.785156 -0.125 0.859375 -0.144531 0.921875 -0.1875 C 0.992188 -0.226562 1.046875 -0.28125 1.078125 -0.34375 C 1.117188 -0.414062 1.140625 -0.5 1.140625 -0.59375 C 1.140625 -0.675781 1.117188 -0.753906 1.078125 -0.828125 C 1.046875 -0.898438 0.992188 -0.953125 0.921875 -0.984375 C 0.859375 -1.023438 0.785156 -1.046875 0.703125 -1.046875 C 0.617188 -1.046875 0.539062 -1.023438 0.46875 -0.984375 C 0.40625 -0.953125 0.351562 -0.898438 0.3125 -0.828125 C 0.28125 -0.753906 0.265625 -0.675781 0.265625 -0.59375 C 0.265625 -0.5 0.28125 -0.414062 0.3125 -0.34375 C 0.351562 -0.28125 0.40625 -0.226562 0.46875 -0.1875 C 0.539062 -0.144531 0.617188 -0.125 0.703125 -0.125 Z M 0.703125 -0.125 "/></g></g></g><g fill="#ffffff" fill-opacity="1"><g transform="translate(42.264812, 34.307405)"><g><path d="M 0.828125 -1.1875 C 0.929688 -1.1875 1.03125 -1.160156 1.125 -1.109375 C 1.21875 -1.054688 1.285156 -0.984375 1.328125 -0.890625 C 1.378906 -0.804688 1.40625 -0.707031 1.40625 -0.59375 C 1.40625 -0.46875 1.378906 -0.359375 1.328125 -0.265625 C 1.285156 -0.179688 1.21875 -0.113281 1.125 -0.0625 C 1.039062 -0.0078125 0.941406 0.015625 0.828125 0.015625 C 0.734375 0.015625 0.644531 -0.00390625 0.5625 -0.046875 C 0.488281 -0.0859375 0.425781 -0.144531 0.375 -0.21875 L 0.375 0.4375 L 0.21875 0.4375 L 0.21875 -1.171875 L 0.375 -1.171875 L 0.375 -0.9375 C 0.414062 -1.019531 0.472656 -1.082031 0.546875 -1.125 C 0.628906 -1.164062 0.722656 -1.1875 0.828125 -1.1875 Z M 0.8125 -0.125 C 0.894531 -0.125 0.96875 -0.144531 1.03125 -0.1875 C 1.101562 -0.226562 1.15625 -0.28125 1.1875 -0.34375 C 1.226562 -0.414062 1.25 -0.5 1.25 -0.59375 C 1.25 -0.675781 1.226562 -0.75 1.1875 -0.8125 C 1.15625 -0.882812 1.101562 -0.941406 1.03125 -0.984375 C 0.96875 -1.023438 0.894531 -1.046875 0.8125 -1.046875 C 0.726562 -1.046875 0.648438 -1.023438 0.578125 -0.984375 C 0.515625 -0.941406 0.460938 -0.882812 0.421875 -0.8125 C 0.390625 -0.75 0.375 -0.675781 0.375 -0.59375 C 0.375 -0.5 0.390625 -0.414062 0.421875 -0.34375 C 0.460938 -0.28125 0.515625 -0.226562 0.578125 -0.1875 C 0.648438 -0.144531 0.726562 -0.125 0.8125 -0.125 Z M 0.8125 -0.125 "/></g></g></g><g fill="#ffffff" fill-opacity="1"><g transform="translate(44.049829, 34.307405)"><g><path d="M 1.25 -0.53125 L 0.265625 -0.53125 C 0.273438 -0.414062 0.320312 -0.316406 0.40625 -0.234375 C 0.488281 -0.160156 0.59375 -0.125 0.71875 -0.125 C 0.789062 -0.125 0.859375 -0.132812 0.921875 -0.15625 C 0.984375 -0.1875 1.035156 -0.226562 1.078125 -0.28125 L 1.171875 -0.1875 C 1.117188 -0.125 1.050781 -0.0703125 0.96875 -0.03125 C 0.894531 0 0.8125 0.015625 0.71875 0.015625 C 0.59375 0.015625 0.484375 -0.0078125 0.390625 -0.0625 C 0.304688 -0.113281 0.238281 -0.1875 0.1875 -0.28125 C 0.132812 -0.375 0.109375 -0.476562 0.109375 -0.59375 C 0.109375 -0.707031 0.128906 -0.804688 0.171875 -0.890625 C 0.222656 -0.984375 0.289062 -1.054688 0.375 -1.109375 C 0.46875 -1.160156 0.566406 -1.1875 0.671875 -1.1875 C 0.785156 -1.1875 0.882812 -1.160156 0.96875 -1.109375 C 1.050781 -1.054688 1.117188 -0.984375 1.171875 -0.890625 C 1.222656 -0.804688 1.25 -0.707031 1.25 -0.59375 Z M 0.671875 -1.046875 C 0.554688 -1.046875 0.460938 -1.007812 0.390625 -0.9375 C 0.316406 -0.863281 0.273438 -0.769531 0.265625 -0.65625 L 1.09375 -0.65625 C 1.082031 -0.769531 1.035156 -0.863281 0.953125 -0.9375 C 0.878906 -1.007812 0.785156 -1.046875 0.671875 -1.046875 Z M 0.671875 -1.046875 "/></g></g></g><g fill="#ffffff" fill-opacity="1"><g transform="translate(45.669317, 34.307405)"><g><path d="M 0.375 -0.9375 C 0.40625 -1.019531 0.457031 -1.082031 0.53125 -1.125 C 0.613281 -1.164062 0.707031 -1.1875 0.8125 -1.1875 L 0.8125 -1.03125 L 0.78125 -1.03125 C 0.65625 -1.03125 0.554688 -0.988281 0.484375 -0.90625 C 0.410156 -0.832031 0.375 -0.726562 0.375 -0.59375 L 0.375 0 L 0.21875 0 L 0.21875 -1.171875 L 0.375 -1.171875 Z M 0.375 -0.9375 "/></g></g></g></svg>