<svg xmlns="http://www.w3.org/2000/svg" xmlns:xlink="http://www.w3.org/1999/xlink" width="64" zoomAndPan="magnify" viewBox="0 0 48 48" height="64" preserveAspectRatio="xMidYMid meet" version="1.0"><defs><g/><clipPath id="id1"><path d="M 8.207031 5.4375 L 39.800781 5.4375 L 39.800781 26.742188 L 8.207031 26.742188 Z M 8.207031 5.4375 " clip-rule="nonzero"/></clipPath></defs><g fill="#ffffff" fill-opacity="1"><g transform="translate(3.413818, 38.31973)"><g><path d="M 2.5625 -7.0625 L 2.5625 -4.3125 L 5.65625 -4.3125 L 5.65625 -3.5 L 2.5625 -3.5 L 2.5625 0 L 1.578125 0 L 1.578125 -7.875 L 6.21875 -7.875 L 6.109375 -7.0625 Z M 2.5625 -7.0625 "/></g></g></g><g fill="#ffffff" fill-opacity="1"><g transform="translate(10.27404, 38.31973)"><g><path d="M 1.203125 0 L 1.203125 -0.734375 L 2.140625 -0.734375 L 2.140625 -5.28125 L 1.203125 -5.28125 L 1.203125 -6.015625 L 2.875 -6.015625 L 3.046875 -4.59375 C 3.285156 -5.09375 3.566406 -5.476562 3.890625 -5.75 C 4.222656 -6.019531 4.664062 -6.15625 5.21875 -6.15625 C 5.382812 -6.15625 5.53125 -6.140625 5.65625 -6.109375 C 5.789062 -6.085938 5.925781 -6.054688 6.0625 -6.015625 L 5.78125 -5.15625 C 5.65625 -5.195312 5.539062 -5.222656 5.4375 -5.234375 C 5.34375 -5.253906 5.226562 -5.265625 5.09375 -5.265625 C 4.625 -5.265625 4.222656 -5.097656 3.890625 -4.765625 C 3.566406 -4.441406 3.304688 -3.945312 3.109375 -3.28125 L 3.109375 -0.734375 L 4.328125 -0.734375 L 4.328125 0 Z M 5.140625 -3.984375 L 5.140625 -5.296875 L 5.234375 -6.015625 L 6.0625 -6.015625 L 5.9375 -3.984375 Z M 5.140625 -3.984375 "/></g></g></g><g fill="#ffffff" fill-opacity="1"><g transform="translate(17.134262, 38.31973)"><g><path d="M 5.46875 -1.3125 C 5.46875 -1.070312 5.503906 -0.894531 5.578125 -0.78125 C 5.660156 -0.675781 5.785156 -0.597656 5.953125 -0.546875 L 5.71875 0.125 C 5.457031 0.09375 5.226562 0.015625 5.03125 -0.109375 C 4.84375 -0.242188 4.703125 -0.445312 4.609375 -0.71875 C 4.390625 -0.4375 4.117188 -0.222656 3.796875 -0.078125 C 3.472656 0.0546875 3.117188 0.125 2.734375 0.125 C 2.128906 0.125 1.648438 -0.0390625 1.296875 -0.375 C 0.953125 -0.71875 0.78125 -1.171875 0.78125 -1.734375 C 0.78125 -2.347656 1.019531 -2.820312 1.5 -3.15625 C 1.988281 -3.488281 2.691406 -3.65625 3.609375 -3.65625 L 4.5 -3.65625 L 4.5 -4.15625 C 4.5 -4.59375 4.367188 -4.898438 4.109375 -5.078125 C 3.859375 -5.265625 3.507812 -5.359375 3.0625 -5.359375 C 2.863281 -5.359375 2.628906 -5.332031 2.359375 -5.28125 C 2.097656 -5.226562 1.8125 -5.148438 1.5 -5.046875 L 1.234375 -5.765625 C 1.609375 -5.898438 1.957031 -5.992188 2.28125 -6.046875 C 2.601562 -6.109375 2.910156 -6.140625 3.203125 -6.140625 C 3.953125 -6.140625 4.515625 -5.960938 4.890625 -5.609375 C 5.273438 -5.265625 5.46875 -4.796875 5.46875 -4.203125 Z M 2.96875 -0.59375 C 3.269531 -0.59375 3.554688 -0.664062 3.828125 -0.8125 C 4.097656 -0.96875 4.320312 -1.179688 4.5 -1.453125 L 4.5 -3 L 3.625 -3 C 2.957031 -3 2.488281 -2.882812 2.21875 -2.65625 C 1.945312 -2.425781 1.8125 -2.117188 1.8125 -1.734375 C 1.8125 -1.359375 1.90625 -1.070312 2.09375 -0.875 C 2.289062 -0.6875 2.582031 -0.59375 2.96875 -0.59375 Z M 2.96875 -0.59375 "/></g></g></g><g fill="#ffffff" fill-opacity="1"><g transform="translate(23.994483, 38.31973)"><g><path d="M 1.15625 0 L 1.15625 -6.015625 L 1.96875 -6.015625 L 2.046875 -5.1875 C 2.285156 -5.5 2.585938 -5.734375 2.953125 -5.890625 C 3.328125 -6.054688 3.6875 -6.140625 4.03125 -6.140625 C 4.625 -6.140625 5.050781 -5.984375 5.3125 -5.671875 C 5.582031 -5.359375 5.71875 -4.925781 5.71875 -4.375 L 5.71875 0 L 4.765625 0 L 4.765625 -3.671875 C 4.765625 -4.078125 4.738281 -4.40625 4.6875 -4.65625 C 4.644531 -4.914062 4.550781 -5.101562 4.40625 -5.21875 C 4.257812 -5.332031 4.035156 -5.390625 3.734375 -5.390625 C 3.492188 -5.390625 3.269531 -5.335938 3.0625 -5.234375 C 2.851562 -5.128906 2.664062 -5 2.5 -4.84375 C 2.34375 -4.695312 2.210938 -4.546875 2.109375 -4.390625 L 2.109375 0 Z M 1.15625 0 "/></g></g></g><g fill="#ffffff" fill-opacity="1"><g transform="translate(30.854705, 38.31973)"><g><path d="M 2.421875 -0.875 C 2.421875 -1.0625 2.460938 -1.226562 2.546875 -1.375 C 2.640625 -1.53125 2.757812 -1.648438 2.90625 -1.734375 C 3.0625 -1.828125 3.234375 -1.875 3.421875 -1.875 C 3.617188 -1.875 3.789062 -1.828125 3.9375 -1.734375 C 4.09375 -1.648438 4.210938 -1.53125 4.296875 -1.375 C 4.390625 -1.226562 4.4375 -1.0625 4.4375 -0.875 C 4.4375 -0.6875 4.390625 -0.515625 4.296875 -0.359375 C 4.210938 -0.210938 4.09375 -0.09375 3.9375 0 C 3.789062 0.0820312 3.617188 0.125 3.421875 0.125 C 3.234375 0.125 3.0625 0.0820312 2.90625 0 C 2.757812 -0.09375 2.640625 -0.210938 2.546875 -0.359375 C 2.460938 -0.515625 2.421875 -0.6875 2.421875 -0.875 Z M 2.421875 -0.875 "/></g></g></g><g fill="#ffffff" fill-opacity="1"><g transform="translate(37.714927, 38.31973)"><g><path d="M 5.125 -6.140625 C 5.3125 -6.140625 5.492188 -6.097656 5.671875 -6.015625 C 5.847656 -5.929688 5.992188 -5.769531 6.109375 -5.53125 C 6.222656 -5.289062 6.28125 -4.941406 6.28125 -4.484375 L 6.28125 0 L 5.390625 0 L 5.390625 -4.328125 C 5.390625 -4.703125 5.363281 -4.972656 5.3125 -5.140625 C 5.269531 -5.316406 5.140625 -5.40625 4.921875 -5.40625 C 4.742188 -5.40625 4.566406 -5.347656 4.390625 -5.234375 C 4.210938 -5.117188 4.039062 -4.929688 3.875 -4.671875 L 3.875 0 L 2.984375 0 L 2.984375 -4.328125 C 2.984375 -4.703125 2.957031 -4.972656 2.90625 -5.140625 C 2.863281 -5.316406 2.734375 -5.40625 2.515625 -5.40625 C 2.328125 -5.40625 2.144531 -5.347656 1.96875 -5.234375 C 1.800781 -5.117188 1.632812 -4.929688 1.46875 -4.671875 L 1.46875 0 L 0.578125 0 L 0.578125 -6.015625 L 1.328125 -6.015625 L 1.390625 -5.328125 C 1.554688 -5.554688 1.738281 -5.75 1.9375 -5.90625 C 2.144531 -6.0625 2.398438 -6.140625 2.703125 -6.140625 C 2.929688 -6.140625 3.144531 -6.085938 3.34375 -5.984375 C 3.550781 -5.878906 3.703125 -5.671875 3.796875 -5.359375 C 3.953125 -5.585938 4.132812 -5.773438 4.34375 -5.921875 C 4.550781 -6.066406 4.8125 -6.140625 5.125 -6.140625 Z M 5.125 -6.140625 "/></g></g></g><g clip-path="url(#id1)"><path fill="#ffffff" d="M 35.800781 25.785156 L 12.207031 25.785156 C 10.804688 25.785156 9.640625 24.777344 9.410156 23.449219 L 38.59375 23.449219 C 38.371094 24.777344 37.203125 25.785156 35.800781 25.785156 Z M 11.203125 6.96875 C 11.203125 6.632812 11.464844 6.367188 11.808594 6.367188 L 36.195312 6.367188 C 36.535156 6.367188 36.804688 6.632812 36.804688 6.96875 L 36.804688 22.507812 L 11.203125 22.507812 Z M 39.105469 22.515625 L 37.753906 22.515625 L 37.753906 6.96875 C 37.753906 6.125 37.058594 5.433594 36.199219 5.433594 L 11.808594 5.433594 C 10.953125 5.433594 10.253906 6.125 10.253906 6.96875 L 10.253906 22.507812 L 8.902344 22.507812 C 8.640625 22.515625 8.429688 22.722656 8.429688 22.984375 C 8.429688 25.042969 10.125 26.722656 12.207031 26.722656 L 35.800781 26.722656 C 37.882812 26.722656 39.578125 25.042969 39.578125 22.984375 C 39.578125 22.722656 39.371094 22.515625 39.105469 22.515625 " fill-opacity="1" fill-rule="nonzero"/></g><path fill="#ffffff" d="M 34.097656 20.429688 L 13.910156 20.429688 L 13.910156 8.476562 L 34.09375 8.476562 L 34.09375 20.429688 Z M 34.570312 7.542969 L 13.4375 7.542969 C 13.175781 7.542969 12.964844 7.753906 12.964844 8.011719 L 12.964844 20.898438 C 12.964844 21.15625 13.175781 21.363281 13.4375 21.363281 L 34.566406 21.363281 C 34.828125 21.363281 35.039062 21.15625 35.039062 20.898438 L 35.039062 8.011719 C 35.042969 7.753906 34.828125 7.542969 34.570312 7.542969 " fill-opacity="1" fill-rule="nonzero"/><path fill="#ffffff" d="M 22.675781 18.164062 C 22.730469 18.183594 22.78125 18.191406 22.832031 18.191406 C 23.027344 18.191406 23.207031 18.070312 23.273438 17.878906 L 25.59375 11.335938 C 25.683594 11.089844 25.550781 10.824219 25.308594 10.738281 C 25.0625 10.652344 24.792969 10.785156 24.703125 11.023438 L 22.382812 17.566406 C 22.300781 17.8125 22.433594 18.078125 22.675781 18.164062 Z M 30.050781 14.550781 L 26.890625 17.027344 C 26.6875 17.1875 26.652344 17.480469 26.8125 17.683594 C 26.90625 17.796875 27.046875 17.859375 27.183594 17.859375 C 27.285156 17.859375 27.386719 17.828125 27.476562 17.757812 L 31.097656 14.921875 C 31.207031 14.835938 31.277344 14.699219 31.277344 14.558594 C 31.277344 14.417969 31.210938 14.285156 31.101562 14.195312 L 27.328125 11.148438 C 27.125 10.984375 26.828125 11.011719 26.667969 11.214844 C 26.5 11.417969 26.53125 11.710938 26.734375 11.871094 Z M 20.535156 17.757812 C 20.621094 17.828125 20.726562 17.859375 20.828125 17.859375 C 20.96875 17.859375 21.105469 17.796875 21.195312 17.683594 C 21.359375 17.480469 21.320312 17.1875 21.117188 17.027344 L 17.960938 14.550781 L 21.273438 11.871094 C 21.476562 11.707031 21.507812 11.414062 21.339844 11.214844 C 21.179688 11.011719 20.878906 10.984375 20.679688 11.148438 L 16.910156 14.195312 C 16.796875 14.285156 16.730469 14.414062 16.730469 14.558594 C 16.730469 14.699219 16.800781 14.835938 16.914062 14.921875 L 20.535156 17.757812 " fill-opacity="1" fill-rule="nonzero"/></svg>